<svg xmlns="http://www.w3.org/2000/svg" xmlns:xlink="http://www.w3.org/1999/xlink" viewBox="0 0 262.9 245.02"><defs><style>.cls-1{isolation:isolate;}.cls-2{fill:#42e8e0;}.cls-3{fill:#5cfff3;}.cls-4{fill:#35dbcf;}.cls-5{fill:#312a91;}.cls-11,.cls-12,.cls-15,.cls-16,.cls-19,.cls-20,.cls-23,.cls-24,.cls-27,.cls-6{opacity:0.5;}.cls-6{fill:url(#Áåçûìÿííûé_ãðàäèåíò_10);}.cls-7{fill:#73fff5;}.cls-8{fill:#0b0244;opacity:0.3;}.cls-13,.cls-17,.cls-21,.cls-25,.cls-9{opacity:0.8;mix-blend-mode:lighten;}.cls-9{fill:url(#Áåçûìÿííûé_ãðàäèåíò_10-2);}.cls-10{fill:url(#Áåçûìÿííûé_ãðàäèåíò_59);}.cls-11{fill:url(#Áåçûìÿííûé_ãðàäèåíò_10-3);}.cls-12{fill:url(#Áåçûìÿííûé_ãðàäèåíò_10-4);}.cls-13{fill:url(#Áåçûìÿííûé_ãðàäèåíò_10-5);}.cls-14{fill:url(#Áåçûìÿííûé_ãðàäèåíò_59-2);}.cls-15{fill:url(#Áåçûìÿííûé_ãðàäèåíò_10-6);}.cls-16{fill:url(#Áåçûìÿííûé_ãðàäèåíò_10-7);}.cls-17{fill:url(#Áåçûìÿííûé_ãðàäèåíò_10-8);}.cls-18{fill:url(#Áåçûìÿííûé_ãðàäèåíò_59-3);}.cls-19{fill:url(#Áåçûìÿííûé_ãðàäèåíò_10-9);}.cls-20{fill:url(#Áåçûìÿííûé_ãðàäèåíò_10-10);}.cls-21{fill:url(#Áåçûìÿííûé_ãðàäèåíò_10-11);}.cls-22{fill:url(#Áåçûìÿííûé_ãðàäèåíò_59-4);}.cls-23{fill:url(#Áåçûìÿííûé_ãðàäèåíò_10-12);}.cls-24{fill:url(#Áåçûìÿííûé_ãðàäèåíò_10-13);}.cls-25{fill:url(#Áåçûìÿííûé_ãðàäèåíò_10-14);}.cls-26{fill:url(#Áåçûìÿííûé_ãðàäèåíò_59-5);}.cls-27{fill:url(#Áåçûìÿííûé_ãðàäèåíò_10-15);}</style><linearGradient id="Áåçûìÿííûé_ãðàäèåíò_10" x1="120.24" y1="6.69" x2="171.36" y2="26.18" gradientUnits="userSpaceOnUse"><stop offset="0" stop-color="#42e8e0"/><stop offset="0.1" stop-color="#3ccace"/><stop offset="0.34" stop-color="#2f87a5"/><stop offset="0.56" stop-color="#255385"/><stop offset="0.75" stop-color="#1e2d6e"/><stop offset="0.91" stop-color="#1a1660"/><stop offset="1" stop-color="#180d5b"/></linearGradient><linearGradient id="Áåçûìÿííûé_ãðàäèåíò_10-2" x1="121.05" y1="11.3" x2="165.05" y2="19.87" xlink:href="#Áåçûìÿííûé_ãðàäèåíò_10"/><linearGradient id="Áåçûìÿííûé_ãðàäèåíò_59" x1="91.32" y1="-80.42" x2="161.57" y2="-31.52" gradientTransform="matrix(0.87, -0.5, 0, 1.15, 51.96, 198.67)" gradientUnits="userSpaceOnUse"><stop offset="0" stop-color="#2b237c"/><stop offset="1" stop-color="#180d5b"/></linearGradient><linearGradient id="Áåçûìÿííûé_ãðàäèåíò_10-3" x1="95.41" y1="51.59" x2="160.87" y2="70.42" xlink:href="#Áåçûìÿííûé_ãðàäèåíò_10"/><linearGradient id="Áåçûìÿííûé_ãðàäèåíò_10-4" x1="45.67" y1="54.63" x2="96.79" y2="74.13" xlink:href="#Áåçûìÿííûé_ãðàäèåíò_10"/><linearGradient id="Áåçûìÿííûé_ãðàäèåíò_10-5" x1="46.49" y1="59.25" x2="90.48" y2="67.82" xlink:href="#Áåçûìÿííûé_ãðàäèåíò_10"/><linearGradient id="Áåçûìÿííûé_ãðàäèåíò_59-2" x1="5.21" y1="-76.18" x2="75.46" y2="-27.28" xlink:href="#Áåçûìÿííûé_ãðàäèåíò_59"/><linearGradient id="Áåçûìÿííûé_ãðàäèåíò_10-6" x1="20.84" y1="99.53" x2="86.3" y2="118.37" xlink:href="#Áåçûìÿííûé_ãðàäèåíò_10"/><linearGradient id="Áåçûìÿííûé_ãðàäèåíò_10-7" x1="194.81" y1="54.63" x2="245.93" y2="74.13" xlink:href="#Áåçûìÿííûé_ãðàäèåíò_10"/><linearGradient id="Áåçûìÿííûé_ãðàäèåíò_10-8" x1="195.62" y1="59.25" x2="239.62" y2="67.82" xlink:href="#Áåçûìÿííûé_ãðàäèåíò_10"/><linearGradient id="Áåçûìÿííûé_ãðàäèåíò_59-3" x1="177.42" y1="-1.61" x2="247.67" y2="47.29" xlink:href="#Áåçûìÿííûé_ãðàäèåíò_59"/><linearGradient id="Áåçûìÿííûé_ãðàäèåíò_10-9" x1="169.97" y1="99.53" x2="235.44" y2="118.37" xlink:href="#Áåçûìÿííûé_ãðàäèåíò_10"/><linearGradient id="Áåçûìÿííûé_ãðàäèåíò_10-10" x1="120.24" y1="138.08" x2="171.36" y2="157.58" xlink:href="#Áåçûìÿííûé_ãðàäèåíò_10"/><linearGradient id="Áåçûìÿííûé_ãðàäèåíò_10-11" x1="121.05" y1="142.7" x2="165.05" y2="151.27" xlink:href="#Áåçûìÿííûé_ãðàäèåíò_10"/><linearGradient id="Áåçûìÿííûé_ãðàäèåíò_59-4" x1="104.2" y1="16.32" x2="145.15" y2="44.82" xlink:href="#Áåçûìÿííûé_ãðàäèåíò_59"/><linearGradient id="Áåçûìÿííûé_ãðàäèåíò_10-12" x1="105.57" y1="155.85" x2="157.07" y2="170.67" xlink:href="#Áåçûìÿííûé_ãðàäèåíò_10"/><linearGradient id="Áåçûìÿííûé_ãðàäèåíò_10-13" x1="120.24" y1="116.58" x2="171.36" y2="136.08" xlink:href="#Áåçûìÿííûé_ãðàäèåíò_10"/><linearGradient id="Áåçûìÿííûé_ãðàäèåíò_10-14" x1="121.05" y1="121.2" x2="165.05" y2="129.76" xlink:href="#Áåçûìÿííûé_ãðàäèåíò_10"/><linearGradient id="Áåçûìÿííûé_ãðàäèåíò_59-5" x1="108.96" y1="-8.59" x2="139.1" y2="12.39" xlink:href="#Áåçûìÿííûé_ãðàäèåíò_59"/><linearGradient id="Áåçûìÿííûé_ãðàäèåíò_10-15" x1="109.32" y1="124.35" x2="155.67" y2="137.69" xlink:href="#Áåçûìÿííûé_ãðàäèåíò_10"/></defs><title>cloud</title><g class="cls-1"><g id="Layer_2" data-name="Layer 2"><g id="Ñëîé_1" data-name="Ñëîé 1"><polygon class="cls-2" points="222.11 234.87 222.11 214.57 204.53 204.42 186.95 214.57 186.95 234.87 204.53 245.02 222.11 234.87"/><polygon class="cls-3" points="204.53 224.72 186.95 214.57 204.53 204.42 222.11 214.57 204.53 224.72"/><polygon class="cls-4" points="222.11 234.87 204.53 245.02 204.53 224.72 222.11 214.57 222.11 234.87"/><polygon class="cls-2" points="204.53 245.02 186.95 234.87 186.95 214.57 204.53 224.72 204.53 245.02"/><polygon class="cls-2" points="62.77 234.21 62.77 222.36 52.51 216.43 42.25 222.36 42.25 234.21 52.51 240.13 62.77 234.21"/><polygon class="cls-3" points="52.51 228.28 42.25 222.36 52.51 216.43 62.77 222.36 52.51 228.28"/><polygon class="cls-4" points="62.77 234.21 52.51 240.13 52.51 228.28 62.77 222.36 62.77 234.21"/><polygon class="cls-2" points="52.51 240.13 42.25 234.21 42.25 222.36 52.51 228.28 52.51 240.13"/><polygon class="cls-2" points="262.9 200.5 262.9 188.65 252.64 182.73 242.37 188.65 242.37 200.5 252.64 206.43 262.9 200.5"/><polygon class="cls-3" points="252.64 194.58 242.37 188.65 252.64 182.73 262.9 188.65 252.64 194.58"/><polygon class="cls-4" points="262.9 200.5 252.64 206.43 252.64 194.58 262.9 188.65 262.9 200.5"/><polygon class="cls-2" points="252.64 206.43 242.37 200.5 242.37 188.65 252.64 194.58 252.64 206.43"/><polygon class="cls-2" points="14.19 54.33 14.19 46.13 7.1 42.04 0 46.13 0 54.33 7.1 58.42 14.19 54.33"/><polygon class="cls-3" points="7.1 50.23 0 46.13 7.1 42.04 14.19 46.13 7.1 50.23"/><polygon class="cls-4" points="14.19 54.33 7.1 58.42 7.1 50.23 14.19 46.13 14.19 54.33"/><polygon class="cls-2" points="7.1 58.42 0 54.33 0 46.13 7.1 50.23 7.1 58.42"/><polygon class="cls-5" points="144.12 31.59 116.77 15.79 144.12 0 171.48 15.79 144.12 31.59"/><polygon class="cls-6" points="144.12 31.59 116.77 15.79 144.12 0 171.48 15.79 144.12 31.59"/><path class="cls-7" d="M144.12,142.75a.42.42,0,0,1-.15,0l-27.35-15.8a.28.28,0,0,1-.15-.26.27.27,0,0,1,.15-.25L144,110.6a.32.32,0,0,1,.3,0l27.36,15.8a.29.29,0,0,1,.15.25.3.3,0,0,1-.15.26l-27.36,15.8A.37.37,0,0,1,144.12,142.75Zm-26.76-16.1,26.76,15.45,26.76-15.45L144.12,111.2Z"/><polygon class="cls-8" points="144.12 136.84 126.48 126.65 144.12 116.47 161.76 126.65 144.12 136.84"/><polygon class="cls-9" points="117.87 15.79 144.67 0.32 144.12 0 116.77 15.79 144.12 31.59 144.67 31.27 117.87 15.79"/><polygon class="cls-3" points="144.12 27.5 123.84 15.79 144.12 4.09 164.4 15.79 144.12 27.5"/><polygon class="cls-2" points="144.12 6.76 162.08 17.13 164.4 15.79 144.12 4.09 123.84 15.79 126.16 17.13 144.12 6.76"/><polygon class="cls-5" points="144.12 123.29 116.77 107.49 116.77 15.79 144.12 31.59 144.12 123.29"/><polygon class="cls-10" points="171.48 107.49 144.12 123.29 144.12 31.59 171.48 15.79 171.48 107.49"/><polygon class="cls-11" points="144.12 31.59 116.77 15.79 116.77 107.49 144.12 123.29 171.48 107.49 171.48 15.79 144.12 31.59"/><path class="cls-3" d="M119.39,20.35V45.87l22.1,12.76V33.11Zm20,34.6L121.52,44.64V24l17.85,10.3Z"/><polygon class="cls-2" points="120.43 45.39 120.43 20.94 119.39 20.35 119.39 45.87 141.5 58.63 141.5 57.56 120.43 45.39"/><polygon class="cls-2" points="140.4 54.47 140.4 33.86 122.55 23.55 122.55 24.62 139.37 34.33 139.37 53.88 140.4 54.47"/><polygon class="cls-2" points="122.55 23.55 121.52 24.03 123.52 25.18 122.55 23.55"/><polygon class="cls-2" points="139.37 54.95 140.4 54.47 139.37 53.05 139.37 54.95"/><path class="cls-3" d="M146.75,33.11V58.63l22.1-12.76V20.35Zm2.13,1.22L166.73,24V44.64L148.88,55Z"/><polygon class="cls-2" points="167.82 45.39 167.82 20.94 168.85 20.35 168.85 45.87 146.75 58.63 146.75 57.56 167.82 45.39"/><polygon class="cls-2" points="147.84 54.47 147.84 33.86 165.69 23.55 165.69 24.62 148.88 34.33 148.88 53.88 147.84 54.47"/><polygon class="cls-2" points="148.88 54.95 147.84 54.47 148.88 53.05 148.88 54.95"/><path class="cls-3" d="M119.39,50.21V75.73l22.1,12.76V63Zm20,34.6-17.85-10.3V53.89L139.37,64.2Z"/><polygon class="cls-2" points="120.43 75.26 120.43 50.81 119.39 50.21 119.39 75.73 141.5 88.49 141.5 87.42 120.43 75.26"/><polygon class="cls-2" points="140.4 84.34 140.4 63.73 122.55 53.42 122.55 54.49 139.37 64.2 139.37 83.74 140.4 84.34"/><polygon class="cls-2" points="122.55 53.42 121.52 53.9 123.52 55.05 122.55 53.42"/><polygon class="cls-2" points="139.37 84.81 140.4 84.34 139.37 82.92 139.37 84.81"/><path class="cls-3" d="M146.75,63V88.49l22.1-12.76V50.21Zm2.13,1.23,17.85-10.31V74.51l-17.85,10.3Z"/><polygon class="cls-2" points="167.82 75.26 167.82 50.81 168.85 50.21 168.85 75.73 146.75 88.49 146.75 87.42 167.82 75.26"/><polygon class="cls-2" points="147.84 84.34 147.84 63.73 165.69 53.42 165.69 54.49 148.88 64.2 148.88 83.74 147.84 84.34"/><polygon class="cls-2" points="148.88 84.81 147.84 84.34 148.88 82.92 148.88 84.81"/><path class="cls-3" d="M119.39,80.08V105.6l22.1,12.76V92.84Zm20,34.6-17.85-10.31V83.76l17.85,10.31Z"/><polygon class="cls-2" points="120.43 105.13 120.43 80.68 119.39 80.08 119.39 105.6 141.5 118.36 141.5 117.29 120.43 105.13"/><polygon class="cls-2" points="140.4 114.21 140.4 93.6 122.55 83.29 122.55 84.36 139.37 94.07 139.37 113.61 140.4 114.21"/><polygon class="cls-2" points="122.55 83.29 121.52 83.76 123.52 84.92 122.55 83.29"/><polygon class="cls-2" points="139.37 114.68 140.4 114.21 139.37 112.78 139.37 114.68"/><path class="cls-3" d="M146.75,92.84v25.52l22.1-12.76V80.08Zm2.13,1.23,17.85-10.31v20.61l-17.85,10.31Z"/><polygon class="cls-2" points="167.82 105.13 167.82 80.68 168.85 80.08 168.85 105.6 146.75 118.36 146.75 117.29 167.82 105.13"/><polygon class="cls-2" points="147.84 114.21 147.84 93.6 165.69 83.29 165.69 84.36 148.88 94.07 148.88 113.61 147.84 114.21"/><polygon class="cls-2" points="148.88 114.68 147.84 114.21 148.88 112.78 148.88 114.68"/><polygon class="cls-2" points="165.69 23.55 166.73 24.03 164.73 25.18 165.69 23.55"/><polygon class="cls-5" points="69.56 79.54 42.2 63.74 69.56 47.95 96.91 63.74 69.56 79.54"/><polygon class="cls-12" points="69.56 79.54 42.2 63.74 69.56 47.95 96.91 63.74 69.56 79.54"/><path class="cls-7" d="M69.56,190.7a.33.33,0,0,1-.15,0l-27.36-15.8a.3.3,0,0,1-.15-.26.32.32,0,0,1,.15-.26l27.36-15.79a.3.3,0,0,1,.29,0l27.36,15.79a.3.3,0,0,1,.15.26.28.28,0,0,1-.15.26l-27.35,15.8A.42.42,0,0,1,69.56,190.7ZM42.8,174.6l26.76,15.45L96.32,174.6,69.55,159.15Z"/><polygon class="cls-8" points="69.56 184.79 51.92 174.6 69.56 164.42 87.19 174.6 69.56 184.79"/><polygon class="cls-13" points="43.3 63.74 70.11 48.27 69.56 47.95 42.2 63.74 69.56 79.54 70.11 79.22 43.3 63.74"/><polygon class="cls-3" points="69.56 75.45 49.28 63.74 69.56 52.04 89.83 63.74 69.56 75.45"/><polygon class="cls-2" points="69.56 54.71 87.52 65.08 89.83 63.74 69.56 52.04 49.28 63.74 51.59 65.08 69.56 54.71"/><polygon class="cls-5" points="69.56 171.23 42.2 155.44 42.2 63.74 69.56 79.54 69.56 171.23"/><polygon class="cls-14" points="96.91 155.44 69.56 171.23 69.56 79.54 96.91 63.74 96.91 155.44"/><polygon class="cls-15" points="69.56 79.54 42.2 63.74 42.2 155.44 69.56 171.23 96.91 155.44 96.91 63.74 69.56 79.54"/><path class="cls-3" d="M44.83,68.3V93.81l22.1,12.77V81.06Zm20,34.59L47,92.59V72L64.8,82.28Z"/><polygon class="cls-2" points="45.86 93.34 45.86 68.89 44.83 68.3 44.83 93.81 66.93 106.58 66.93 105.51 45.86 93.34"/><polygon class="cls-2" points="65.83 102.42 65.83 81.81 47.98 71.5 47.98 72.57 64.8 82.28 64.8 101.83 65.83 102.42"/><polygon class="cls-2" points="47.98 71.5 46.95 71.98 48.95 73.13 47.98 71.5"/><polygon class="cls-2" points="64.8 102.89 65.83 102.42 64.8 101 64.8 102.89"/><path class="cls-3" d="M72.18,81.06v25.52l22.1-12.77V68.3Zm2.13,1.22L92.16,72V92.59l-17.85,10.3Z"/><polygon class="cls-2" points="93.25 93.34 93.25 68.89 94.28 68.3 94.28 93.81 72.18 106.58 72.18 105.51 93.25 93.34"/><polygon class="cls-2" points="73.28 102.42 73.28 81.81 91.13 71.5 91.13 72.57 74.31 82.28 74.31 101.83 73.28 102.42"/><polygon class="cls-2" points="74.31 102.89 73.28 102.42 74.31 101 74.31 102.89"/><path class="cls-3" d="M44.83,98.16v25.52l22.1,12.76V110.92Zm20,34.6L47,122.46V101.84L64.8,112.15Z"/><polygon class="cls-2" points="45.86 123.21 45.86 98.76 44.83 98.16 44.83 123.68 66.93 136.44 66.93 135.37 45.86 123.21"/><polygon class="cls-2" points="65.83 132.29 65.83 111.68 47.98 101.37 47.98 102.44 64.8 112.15 64.8 131.69 65.83 132.29"/><polygon class="cls-2" points="47.98 101.37 46.95 101.84 48.95 103 47.98 101.37"/><polygon class="cls-2" points="64.8 132.76 65.83 132.29 64.8 130.87 64.8 132.76"/><path class="cls-3" d="M72.18,110.92v25.52l22.1-12.76V98.16Zm2.13,1.23,17.85-10.31v20.62l-17.85,10.3Z"/><polygon class="cls-2" points="93.25 123.21 93.25 98.76 94.28 98.16 94.28 123.68 72.18 136.44 72.18 135.37 93.25 123.21"/><polygon class="cls-2" points="73.28 132.29 73.28 111.68 91.13 101.37 91.13 102.44 74.31 112.15 74.31 131.69 73.28 132.29"/><polygon class="cls-2" points="74.31 132.76 73.28 132.29 74.31 130.87 74.31 132.76"/><path class="cls-3" d="M44.83,128v25.52l22.1,12.76V140.79Zm20,34.6L47,152.32V131.71L64.8,142Z"/><polygon class="cls-2" points="45.86 153.08 45.86 128.63 44.83 128.03 44.83 153.55 66.93 166.31 66.93 165.24 45.86 153.08"/><polygon class="cls-2" points="65.83 162.16 65.83 141.54 47.98 131.24 47.98 132.31 64.8 142.02 64.8 161.56 65.83 162.16"/><polygon class="cls-2" points="47.98 131.24 46.95 131.71 48.95 132.86 47.98 131.24"/><polygon class="cls-2" points="64.8 162.63 65.83 162.16 64.8 160.73 64.8 162.63"/><path class="cls-3" d="M72.18,140.79v25.52l22.1-12.76V128ZM74.31,142l17.85-10.31v20.61L74.31,162.63Z"/><polygon class="cls-2" points="93.25 153.08 93.25 128.63 94.28 128.03 94.28 153.55 72.18 166.31 72.18 165.24 93.25 153.08"/><polygon class="cls-2" points="73.28 162.16 73.28 141.54 91.13 131.24 91.13 132.31 74.31 142.02 74.31 161.56 73.28 162.16"/><polygon class="cls-2" points="74.31 162.63 73.28 162.16 74.31 160.73 74.31 162.63"/><polygon class="cls-2" points="91.13 71.5 92.16 71.98 90.16 73.13 91.13 71.5"/><polygon class="cls-5" points="218.69 79.54 191.33 63.74 218.69 47.95 246.05 63.74 218.69 79.54"/><polygon class="cls-16" points="218.69 79.54 191.33 63.74 218.69 47.95 246.05 63.74 218.69 79.54"/><path class="cls-7" d="M218.69,190.7a.42.42,0,0,1-.15,0l-27.36-15.8a.3.3,0,0,1-.15-.26.32.32,0,0,1,.15-.26l27.36-15.79a.32.32,0,0,1,.3,0l27.36,15.79a.32.32,0,0,1,.15.26.3.3,0,0,1-.15.26l-27.36,15.8A.42.42,0,0,1,218.69,190.7Zm-26.76-16.1,26.76,15.45,26.76-15.45-26.76-15.45Z"/><polygon class="cls-8" points="218.69 184.79 201.05 174.6 218.69 164.42 236.33 174.6 218.69 184.79"/><polygon class="cls-17" points="192.43 63.74 219.24 48.27 218.69 47.95 191.33 63.74 218.69 79.54 219.24 79.22 192.43 63.74"/><polygon class="cls-3" points="218.69 75.45 198.41 63.74 218.69 52.04 238.97 63.74 218.69 75.45"/><polygon class="cls-2" points="218.69 54.71 236.65 65.08 238.97 63.74 218.69 52.04 198.41 63.74 200.73 65.08 218.69 54.71"/><polygon class="cls-5" points="218.69 171.23 191.33 155.44 191.33 63.74 218.69 79.54 218.69 171.23"/><polygon class="cls-18" points="246.05 155.44 218.69 171.23 218.69 79.54 246.05 63.74 246.05 155.44"/><polygon class="cls-19" points="218.69 79.54 191.33 63.74 191.33 155.44 218.69 171.23 246.05 155.44 246.05 63.74 218.69 79.54"/><path class="cls-3" d="M194,68.3V93.81l22.1,12.77V81.06Zm20,34.59-17.85-10.3V72l17.85,10.3Z"/><polygon class="cls-2" points="194.99 93.34 194.99 68.89 193.96 68.3 193.96 93.81 216.06 106.58 216.06 105.51 194.99 93.34"/><polygon class="cls-2" points="214.97 102.42 214.97 81.81 197.12 71.5 197.12 72.57 213.94 82.28 213.94 101.83 214.97 102.42"/><polygon class="cls-2" points="197.12 71.5 196.09 71.98 198.08 73.13 197.12 71.5"/><polygon class="cls-2" points="213.94 102.89 214.97 102.42 213.94 101 213.94 102.89"/><path class="cls-3" d="M221.32,81.06v25.52l22.1-12.77V68.3Zm2.12,1.22L241.29,72V92.59l-17.85,10.3Z"/><polygon class="cls-2" points="242.39 93.34 242.39 68.89 243.42 68.3 243.42 93.81 221.32 106.58 221.32 105.51 242.39 93.34"/><polygon class="cls-2" points="222.41 102.42 222.41 81.81 240.26 71.5 240.26 72.57 223.44 82.28 223.44 101.83 222.41 102.42"/><polygon class="cls-2" points="223.44 102.89 222.41 102.42 223.44 101 223.44 102.89"/><path class="cls-3" d="M194,98.16v25.52l22.1,12.76V110.92Zm20,34.6-17.85-10.3V101.84l17.85,10.31Z"/><polygon class="cls-2" points="194.99 123.21 194.99 98.76 193.96 98.16 193.96 123.68 216.06 136.44 216.06 135.37 194.99 123.21"/><polygon class="cls-2" points="214.97 132.29 214.97 111.68 197.12 101.37 197.12 102.44 213.94 112.15 213.94 131.69 214.97 132.29"/><polygon class="cls-2" points="197.12 101.37 196.09 101.84 198.08 103 197.12 101.37"/><polygon class="cls-2" points="213.94 132.76 214.97 132.29 213.94 130.87 213.94 132.76"/><path class="cls-3" d="M221.32,110.92v25.52l22.1-12.76V98.16Zm2.12,1.23,17.85-10.31v20.62l-17.85,10.3Z"/><polygon class="cls-2" points="242.39 123.21 242.39 98.76 243.42 98.16 243.42 123.68 221.32 136.44 221.32 135.37 242.39 123.21"/><polygon class="cls-2" points="222.41 132.29 222.41 111.68 240.26 101.37 240.26 102.44 223.44 112.15 223.44 131.69 222.41 132.29"/><polygon class="cls-2" points="223.44 132.76 222.41 132.29 223.44 130.87 223.44 132.76"/><path class="cls-3" d="M194,128v25.52l22.1,12.76V140.79Zm20,34.6-17.85-10.31V131.71L213.94,142Z"/><polygon class="cls-2" points="194.99 153.08 194.99 128.63 193.96 128.03 193.96 153.55 216.06 166.31 216.06 165.24 194.99 153.08"/><polygon class="cls-2" points="214.97 162.16 214.97 141.54 197.12 131.24 197.12 132.31 213.94 142.02 213.94 161.56 214.97 162.16"/><polygon class="cls-2" points="197.12 131.24 196.09 131.71 198.08 132.86 197.12 131.24"/><polygon class="cls-2" points="213.94 162.63 214.97 162.16 213.94 160.73 213.94 162.63"/><path class="cls-3" d="M221.32,140.79v25.52l22.1-12.76V128Zm2.12,1.23,17.85-10.31v20.61l-17.85,10.31Z"/><polygon class="cls-2" points="242.39 153.08 242.39 128.63 243.42 128.03 243.42 153.55 221.32 166.31 221.32 165.24 242.39 153.08"/><polygon class="cls-2" points="222.41 162.16 222.41 141.54 240.26 131.24 240.26 132.31 223.44 142.02 223.44 161.56 222.41 162.16"/><polygon class="cls-2" points="223.44 162.63 222.41 162.16 223.44 160.73 223.44 162.63"/><polygon class="cls-2" points="240.26 71.5 241.29 71.98 239.3 73.13 240.26 71.5"/><polygon class="cls-5" points="144.12 162.99 116.77 147.19 144.12 131.4 171.48 147.19 144.12 162.99"/><polygon class="cls-20" points="144.12 162.99 116.77 147.19 144.12 131.4 171.48 147.19 144.12 162.99"/><path class="cls-7" d="M144.12,214.56a.28.28,0,0,1-.15,0l-27.35-15.79a.3.3,0,0,1-.15-.26.28.28,0,0,1,.15-.26L144,182.41a.32.32,0,0,1,.3,0l27.36,15.8a.3.3,0,0,1,.15.26.32.32,0,0,1-.15.26l-27.36,15.79A.26.26,0,0,1,144.12,214.56Zm-26.76-16.09,26.76,15.45,26.76-15.45L144.12,183Z"/><polygon class="cls-8" points="144.12 208.65 126.48 198.47 144.12 188.28 161.76 198.47 144.12 208.65"/><polygon class="cls-21" points="117.87 147.19 144.67 131.72 144.12 131.4 116.77 147.19 144.12 162.99 144.67 162.67 117.87 147.19"/><polygon class="cls-3" points="144.12 158.9 123.84 147.19 144.12 135.49 164.4 147.19 144.12 158.9"/><polygon class="cls-2" points="144.12 138.16 162.08 148.53 164.4 147.19 144.12 135.49 123.84 147.19 126.16 148.53 144.12 138.16"/><polygon class="cls-5" points="144.12 194.58 116.77 178.78 116.77 147.19 144.12 162.99 144.12 194.58"/><polygon class="cls-22" points="171.48 178.78 144.12 194.58 144.12 162.99 171.48 147.19 171.48 178.78"/><polygon class="cls-23" points="144.12 162.99 116.77 147.19 116.77 178.78 144.12 194.58 171.48 178.78 171.48 147.19 144.12 162.99"/><path class="cls-3" d="M119.39,151.74v25.52L141.49,190V164.5Zm20,34.6L121.52,176V155.42l17.85,10.31Z"/><polygon class="cls-2" points="120.43 176.79 120.43 152.34 119.39 151.74 119.39 177.26 141.5 190.02 141.5 188.96 120.43 176.79"/><polygon class="cls-2" points="140.4 185.87 140.4 165.26 122.55 154.95 122.55 156.02 139.37 165.73 139.37 185.27 140.4 185.87"/><polygon class="cls-2" points="122.55 154.95 121.52 155.43 123.52 156.58 122.55 154.95"/><polygon class="cls-2" points="139.37 186.34 140.4 185.87 139.37 184.45 139.37 186.34"/><path class="cls-3" d="M146.75,164.5V190l22.1-12.76V151.74Zm2.13,1.23,17.85-10.31V176l-17.85,10.3Z"/><polygon class="cls-2" points="167.82 176.79 167.82 152.34 168.85 151.74 168.85 177.26 146.75 190.02 146.75 188.96 167.82 176.79"/><polygon class="cls-2" points="147.84 185.87 147.84 165.26 165.69 154.95 165.69 156.02 148.88 165.73 148.88 185.27 147.84 185.87"/><polygon class="cls-2" points="148.88 186.34 147.84 185.87 148.88 184.45 148.88 186.34"/><polygon class="cls-2" points="165.69 154.95 166.73 155.43 164.73 156.58 165.69 154.95"/><polygon class="cls-5" points="144.12 141.48 116.77 125.69 144.12 109.89 171.48 125.69 144.12 141.48"/><polygon class="cls-24" points="144.12 141.48 116.77 125.69 144.12 109.89 171.48 125.69 144.12 141.48"/><polygon class="cls-25" points="117.87 125.69 144.67 110.21 144.12 109.89 116.77 125.69 144.12 141.48 144.67 141.16 117.87 125.69"/><polygon class="cls-3" points="144.12 137.4 123.84 125.69 144.12 113.98 164.4 125.69 144.12 137.4"/><polygon class="cls-2" points="144.12 116.66 162.08 127.03 164.4 125.69 144.12 113.98 123.84 125.69 126.16 127.03 144.12 116.66"/><polygon class="cls-5" points="144.12 150.91 116.77 135.11 116.77 125.69 144.12 141.48 144.12 150.91"/><polygon class="cls-26" points="171.48 135.11 144.12 150.91 144.12 141.48 171.48 125.69 171.48 135.11"/><polygon class="cls-27" points="144.12 141.48 116.77 125.69 116.77 135.11 144.12 150.91 171.48 135.11 171.48 125.69 144.12 141.48"/><path class="cls-3" d="M155,140.2a3.28,3.28,0,0,1-1.5,2.58c-.82.48-1.49.09-1.49-.86a3.33,3.33,0,0,1,1.49-2.59C154.31,138.86,155,139.24,155,140.2Z"/><path class="cls-3" d="M159.76,137.44a3.28,3.28,0,0,1-1.5,2.58c-.82.48-1.49.09-1.49-.86a3.33,3.33,0,0,1,1.49-2.59C159.09,136.1,159.76,136.48,159.76,137.44Z"/><path class="cls-3" d="M164.54,134.68a3.28,3.28,0,0,1-1.5,2.58c-.82.48-1.49.09-1.49-.86a3.33,3.33,0,0,1,1.49-2.59C163.87,133.34,164.54,133.72,164.54,134.68Z"/><path class="cls-2" d="M154.3,139.14a1.59,1.59,0,0,1,.07.46,3.28,3.28,0,0,1-1.5,2.58,1.18,1.18,0,0,1-.81.19c.19.61.75.8,1.42.41a3.28,3.28,0,0,0,1.5-2.58C155,139.59,154.71,139.22,154.3,139.14Z"/><path class="cls-2" d="M159.08,136.39a1.52,1.52,0,0,1,.07.45,3.31,3.31,0,0,1-1.5,2.59,1.18,1.18,0,0,1-.81.18c.18.61.75.8,1.42.41a3.28,3.28,0,0,0,1.5-2.58C159.76,136.83,159.49,136.46,159.08,136.39Z"/><path class="cls-2" d="M163.86,133.63a1.52,1.52,0,0,1,.07.45,3.31,3.31,0,0,1-1.5,2.59,1.18,1.18,0,0,1-.81.18c.18.61.75.8,1.42.41a3.28,3.28,0,0,0,1.5-2.58C164.54,134.07,164.27,133.7,163.86,133.63Z"/><path class="cls-3" d="M133.4,140.2a3.28,3.28,0,0,0,1.5,2.58c.82.48,1.49.09,1.49-.86a3.33,3.33,0,0,0-1.49-2.59C134.07,138.86,133.4,139.24,133.4,140.2Z"/><path class="cls-3" d="M128.62,137.44a3.28,3.28,0,0,0,1.5,2.58c.82.48,1.49.09,1.49-.86a3.33,3.33,0,0,0-1.49-2.59C129.29,136.1,128.62,136.48,128.62,137.44Z"/><path class="cls-3" d="M123.84,134.68a3.28,3.28,0,0,0,1.5,2.58c.82.48,1.49.09,1.49-.86a3.33,3.33,0,0,0-1.49-2.59C124.51,133.34,123.84,133.72,123.84,134.68Z"/><path class="cls-2" d="M134.08,139.14a1.59,1.59,0,0,0-.07.46,3.28,3.28,0,0,0,1.5,2.58,1.19,1.19,0,0,0,.81.19c-.18.61-.75.8-1.42.41a3.28,3.28,0,0,1-1.5-2.58C133.4,139.59,133.67,139.22,134.08,139.14Z"/><path class="cls-2" d="M129.3,136.39a1.52,1.52,0,0,0-.07.45,3.31,3.31,0,0,0,1.5,2.59,1.18,1.18,0,0,0,.81.18c-.18.61-.75.8-1.42.41a3.28,3.28,0,0,1-1.5-2.58C128.62,136.83,128.89,136.46,129.3,136.39Z"/><path class="cls-2" d="M124.52,133.63a1.52,1.52,0,0,0-.07.45,3.31,3.31,0,0,0,1.5,2.59,1.18,1.18,0,0,0,.81.18c-.18.61-.75.8-1.42.41a3.28,3.28,0,0,1-1.5-2.58C123.84,134.07,124.12,133.7,124.52,133.63Z"/></g></g></g></svg>