<svg xmlns="http://www.w3.org/2000/svg" viewBox="0 0 500 500"><defs><style>.cls-1{isolation:isolate;}.cls-2{fill:#272f42;}.cls-3{fill:#0695cf;}.cls-4{fill:#ff9519;}.cls-5{fill:#b97c4a;}.cls-6{fill:#48449c;}.cls-7{opacity:0.2;}.cls-11,.cls-24,.cls-7{mix-blend-mode:screen;}.cls-8{fill:#e09e3b;}.cls-9{opacity:0.1;}.cls-14,.cls-20,.cls-9{mix-blend-mode:multiply;}.cls-10{fill:#353195;}.cls-11,.cls-14,.cls-20,.cls-27{opacity:0.5;}.cls-12{fill:#fff;}.cls-13{fill:#e6e7ed;}.cls-15{fill:#009cf0;}.cls-16{fill:#784426;}.cls-17{fill:#ffcb8c;}.cls-18{fill:#ffd9ab;}.cls-19,.cls-20{fill:#95542f;}.cls-21{fill:#262424;}.cls-22,.cls-27{fill:#f1a567;}.cls-23{fill:#cdced3;}.cls-24{opacity:0.19;}.cls-25{fill:#c4eeff;}.cls-26{fill:#9edaf3;}</style></defs><title>erro-404</title><g class="cls-1"><g id="BACKGROUND"><rect class="cls-2" width="500" height="500"/></g><g id="OBJECTS"><path class="cls-3" d="M339,326.48A22.56,22.56,0,0,1,349.21,311a23,23,0,0,1,26,1.94c7.5,6.24,10.32,17.76,6.38,26.73s-15.28,13.43-24.5,11.73A22.87,22.87,0,0,1,339.36,335,20.88,20.88,0,0,1,339,326.48Z" transform="translate(0 0)"/><path class="cls-4" d="M339.36,335a22.87,22.87,0,0,0,17.7,16.37c9.22,1.7,20.57-2.78,24.5-11.73s1.12-20.49-6.38-26.73a23,23,0,0,0-26-1.94A22.56,22.56,0,0,0,339,326.48,20.88,20.88,0,0,0,339.36,335Zm3.93-10.86a13.38,13.38,0,0,1,7.41-9.66c7.18-3.58,17.06-3.1,22.8,2.4,4.57,4.38,6.49,12.37,5.24,18.6-.59,2.94-2.7,5.73-4.84,7.84-2.42,2.38-11.87,7.24-21.48,2a20.55,20.55,0,0,1-8.24-9.13A21.25,21.25,0,0,1,343.29,324.13Z" transform="translate(0 0)"/><path class="cls-5" d="M188.86,452.3A23.35,23.35,0,0,0,179,435.84a23.77,23.77,0,0,0-26.93,1c-8,6.14-11.39,17.93-7.69,27.37s15.25,14.51,24.86,13.12a23.68,23.68,0,0,0,19-16.21A21.68,21.68,0,0,0,188.86,452.3Z" transform="translate(0 0)"/><path class="cls-4" d="M158.83,448.11c3.32,0,3.33-5.16,0-5.16s-3.32,5.16,0,5.16Z" transform="translate(0 0)"/><path class="cls-4" d="M151.32,453c3.52,0,3.52-5.46,0-5.46s-3.52,5.46,0,5.46Z" transform="translate(0 0)"/><path class="cls-4" d="M153.68,466.14c3.89,0,3.89-6,0-6s-3.89,6,0,6Z" transform="translate(0 0)"/><path class="cls-4" d="M165.31,470.17a2.71,2.71,0,0,0,1.83-.75,1.94,1.94,0,0,0,.53-.83,2,2,0,0,0,.23-1,2.61,2.61,0,0,0-.76-1.83,2.71,2.71,0,0,0-1.83-.75,2.67,2.67,0,0,0-1.82.75,2,2,0,0,0-.54.84,2,2,0,0,0-.22,1,2.61,2.61,0,0,0,.76,1.83,2.67,2.67,0,0,0,1.82.75Z" transform="translate(0 0)"/><path class="cls-4" d="M178.18,467.75a2.85,2.85,0,0,0-1.33,0,2.55,2.55,0,1,0,3.11,1.79,2.46,2.46,0,0,0-.66-1.12,2.51,2.51,0,0,0-1.12-.66Z" transform="translate(0 0)"/><path class="cls-4" d="M171.07,448.61l.07.07a2.32,2.32,0,1,0,0-3.29l-.07.07a2.25,2.25,0,0,0,0,3.15Z" transform="translate(0 0)"/><path class="cls-4" d="M174.17,459.55a2.5,2.5,0,0,0,1.72-.71,1.78,1.78,0,0,0,.5-.79,1.84,1.84,0,0,0,.21-.93,2.45,2.45,0,0,0-.71-1.72,2.56,2.56,0,0,0-1.72-.71,2.49,2.49,0,0,0-1.71.71,1.7,1.7,0,0,0-.5.79,1.66,1.66,0,0,0-.21.93,2.45,2.45,0,0,0,.71,1.72,2.54,2.54,0,0,0,1.71.71Z" transform="translate(0 0)"/><path class="cls-4" d="M181.44,453.92c3.61,0,3.62-5.61,0-5.61s-3.61,5.61,0,5.61Z" transform="translate(0 0)"/><path class="cls-4" d="M172.56,466.65a1.16,1.16,0,0,0,0-2.32,1.16,1.16,0,0,0,0,2.32Z" transform="translate(0 0)"/><path class="cls-4" d="M156,471l-.21,0-.27.12a.85.85,0,0,0-.33.29,1.12,1.12,0,0,0-.24.7,1.47,1.47,0,0,0,.15.58,1.13,1.13,0,0,0,.69.52l.21,0a1.18,1.18,0,0,0,1.14-.3,1.16,1.16,0,0,0,0-1.66,1.21,1.21,0,0,0-.52-.31,1.3,1.3,0,0,0-.62,0Z" transform="translate(0 0)"/><path class="cls-4" d="M168.92,439.17a1.15,1.15,0,0,0,0-2.29,1.15,1.15,0,0,0,0,2.29Z" transform="translate(0 0)"/><path class="cls-4" d="M179.43,441.21a1,1,0,0,0,0-2.08,1,1,0,0,0,0,2.08Z" transform="translate(0 0)"/><path class="cls-4" d="M186.83,460.23l.08-.08a1.21,1.21,0,0,0,.24-1.28,1.16,1.16,0,0,0-1.07-.72,1.2,1.2,0,0,0-1,.58,1.21,1.21,0,0,0,.18,1.42l.08.08a1.11,1.11,0,0,0,1.5,0Z" transform="translate(0 0)"/><path class="cls-4" d="M145.75,458.36a1,1,0,0,0,0-2.05,1,1,0,0,0,0,2.05Z" transform="translate(0 0)"/><path class="cls-6" d="M81.92,97.35a31.56,31.56,0,0,0,24.44,8.75c12.89-1.27,24.38-11.44,27.34-24,3.12-13.28-3.44-28.51-15.39-35.2S89.94,44.73,81.08,54.4c-8,8.76-10.56,22.25-6,33.19A29.24,29.24,0,0,0,81.92,97.35Z" transform="translate(0 0)"/><g class="cls-7"><path class="cls-6" d="M102.73,44.52a23.1,23.1,0,0,1-7.17,5.7A114.53,114.53,0,0,1,81.64,57c-1.21.5-2.43,1-3.66,1.46a30.28,30.28,0,0,1,3.1-4,34.47,34.47,0,0,1,22.17-10.62C103.08,44.05,102.9,44.3,102.73,44.52Z" transform="translate(0 0)"/><path class="cls-6" d="M119.06,48.57c-2.85,3.49-6.88,6.07-10.65,8.44A139.17,139.17,0,0,1,91.76,65.8C85.58,68.6,79.27,71.08,73,73.51a33.25,33.25,0,0,1,1-5.85c2.6-1.06,5.19-2.15,7.75-3.28a145.3,145.3,0,0,0,18.12-9.3,53.79,53.79,0,0,0,6.8-4.9,19.72,19.72,0,0,0,4.29-4.91c.18-.32.34-.65.49-1a24.07,24.07,0,0,1,6.93,2.57q.72.4,1.41.84C119.51,48,119.28,48.29,119.06,48.57Z" transform="translate(0 0)"/><path class="cls-6" d="M124,62.28C113.46,70.05,101.63,75.9,89.69,81.2c-4.85,2.15-9.73,4.21-14.61,6.27a27.45,27.45,0,0,1-1.28-3.84l.12,0Q79.64,80.86,85.29,78c3.92-2,7.82-4,11.66-6.15s7.42-4.2,11-6.46c3.24-2,6.41-4.17,9.44-6.51a48.84,48.84,0,0,0,6.9-6.27c.21-.23.4-.46.6-.7a32.89,32.89,0,0,1,4.51,5.78A39.18,39.18,0,0,1,124,62.28Z" transform="translate(0 0)"/><path class="cls-6" d="M133,73.47A96.65,96.65,0,0,1,119,81.26c-5.69,2.68-11.49,5.11-17.33,7.43-5.17,2-10.37,4-15.59,5.92-1.67.61-3.36,1.2-5,1.81-.71-.75-1.4-1.53-2-2.35l.1,0c12.52-4.66,25.07-9.52,36.62-16.28,2.85-1.67,5.64-3.46,8.32-5.38a43,43,0,0,0,6.75-5.64,19.69,19.69,0,0,0,1.85-2.35,33.43,33.43,0,0,1,1.76,8.14C133.92,72.85,133.48,73.17,133,73.47Z" transform="translate(0 0)"/><path class="cls-6" d="M126.32,93.24a119,119,0,0,1-23.19,9.23q-4.25,1.25-8.55,2.35a32.92,32.92,0,0,1-6.68-3c10.35-3.4,20.66-7,30.64-11.37,2.66-1.17,5.3-2.39,7.91-3.69,2.36-1.17,4.65-2.48,7-3.71a30.42,30.42,0,0,1-3.61,8.11C128.68,91.91,127.5,92.59,126.32,93.24Z" transform="translate(0 0)"/></g><path class="cls-8" d="M62,89.17c-.42-3,5.91-7.26,11.09-9.49a18.24,18.24,0,0,0,.74,3.95c-4.24,1.87-6.41,3.51-6,5,.77,2.91,8.6,2.61,10.68,2.59a84.23,84.23,0,0,0,17.32-2.26A127.16,127.16,0,0,0,130,75.07c2.21-1.27,11.95-7.12,10.92-9.4-.94-2.11-5.42-.82-7.94,0a21.59,21.59,0,0,0-1.18-3.42c8.81-2,13.55-.91,14.58.93,2.68,4.8-10.07,13.81-14.12,16.09-10.43,5.88-18.15,10-28.06,13-7.64,2.33-15.55,4.26-23.59,4.09C75.93,96.23,62.85,95.44,62,89.17Z" transform="translate(0 0)"/><path class="cls-5" d="M412.49,79.93A31.54,31.54,0,0,0,428,100.74c11.44,6.09,26.63,4,36.09-4.87C474,86.54,477,70.22,470.76,58S448.31,40.55,435.57,43.7C424.05,46.55,414.46,56.37,412.24,68A29.09,29.09,0,0,0,412.49,79.93Z" transform="translate(0 0)"/><g class="cls-9"><path class="cls-10" d="M459.07,47.47a23.38,23.38,0,0,1-9.12.77,116.59,116.59,0,0,1-15.34-2.08c-1.28-.26-2.57-.53-3.85-.82a30.3,30.3,0,0,1,4.81-1.64,34.44,34.44,0,0,1,24.35,3.43A7.16,7.16,0,0,1,459.07,47.47Z" transform="translate(0 0)"/><path class="cls-10" d="M470.43,59.88c-4.31,1.33-9.09,1.24-13.54,1.12a138.52,138.52,0,0,1-18.74-1.9c-6.69-1.09-13.32-2.52-19.93-4a33.26,33.26,0,0,1,4.06-4.33q4.13.84,8.27,1.56a145,145,0,0,0,20.24,2.29,53.18,53.18,0,0,0,8.37-.31,19.59,19.59,0,0,0,6.29-1.71c.33-.17.65-.36,1-.56a24.59,24.59,0,0,1,4.35,6c.25.49.48,1,.7,1.49C471.12,59.65,470.77,59.77,470.43,59.88Z" transform="translate(0 0)"/><path class="cls-10" d="M467,74c-13.09.62-26.18-1.06-39.06-3.26-5.23-.89-10.43-1.88-15.64-2.87a28.78,28.78,0,0,1,1.06-3.9h.13q6.27.92,12.55,1.67c4.37.52,8.74,1,13.12,1.34s8.5.61,12.76.72c3.82.1,7.64.08,11.45-.19a48.79,48.79,0,0,0,9.23-1.4c.29-.07.59-.16.88-.25a32.54,32.54,0,0,1,.55,7.31A39.77,39.77,0,0,1,467,74Z" transform="translate(0 0)"/><path class="cls-10" d="M461.35,82.43a42.76,42.76,0,0,0,8.74-1,21,21,0,0,0,2.84-.93,33.32,33.32,0,0,1-3,7.74c-.54,0-1.08.06-1.61.07a97,97,0,0,1-16-1.32c-6.22-.92-12.4-2.11-18.55-3.42-5.43-1.15-10.85-2.41-16.25-3.7l-5.2-1.28c-.18-1-.32-2-.4-3.09l.1,0c13,3,26.15,6,39.51,6.72,3.3.2,6.61.25,9.91.13" transform="translate(0 0)"/><path class="cls-10" d="M451.73,101.09a118,118,0,0,1-24.42-5.16c-2.82-.87-5.62-1.81-8.42-2.77A32.54,32.54,0,0,1,415,87c10.5,2.9,21.07,5.62,31.8,7.5q4.31.77,8.63,1.31c2.62.33,5.25.52,7.88.78a30.06,30.06,0,0,1-7.5,4.76C454.43,101.29,453.08,101.21,451.73,101.09Z" transform="translate(0 0)"/></g><path class="cls-8" d="M400.41,62.06c1.29-2.69,8.94-2.77,14.48-1.75a18.62,18.62,0,0,0-1.57,3.7c-4.56-.8-7.28-.64-7.77.8-1,2.85,5.71,6.93,7.46,8.07a84.47,84.47,0,0,0,15.67,7.72A127.3,127.3,0,0,0,464.83,88c2.54.17,13.89.69,14.3-1.78.37-2.27-4.07-3.69-6.58-4.44a22.2,22.2,0,0,0,.9-3.5c8.46,3.2,11.79,6.75,11.62,8.85-.42,5.48-16,5.93-20.66,5.58C452.47,91.81,443.76,91,433.84,88c-7.65-2.29-15.31-5.06-21.91-9.66C408.12,75.67,397.67,67.77,400.41,62.06Z" transform="translate(0 0)"/><g class="cls-11"><path class="cls-12" d="M345,86.53a.34.34,0,0,0-.38-.32c-3.08.1-6.88.07-9.62-1.46-1.89-1-2.59-3.68-3.19-5.6a43.26,43.26,0,0,1-1.11-4.31c-.09-.46-.8-.35-.8.1,0,3.21-.09,8.5-3.59,9.83-3.14,1.19-6.81,1.36-10.14,1.44a.41.41,0,0,0,0,.81c3.4.19,7.41.79,10.28,2.73,3.21,2.15,3.34,7.44,3.35,10.94a.41.41,0,0,0,.82,0,28.36,28.36,0,0,1,.61-4.1c.49-2.26,1.19-5,3-6.59s4.2-2,6.34-2.44a34.71,34.71,0,0,1,4.06-.54A.4.4,0,0,0,345,86.53Zm-11.35,2.9c-1.78,1.6-2.74,4.15-3.26,6.73-.34-2.68-1.15-5.35-3.15-6.85a15.15,15.15,0,0,0-6.21-2.52,18.12,18.12,0,0,0,6.23-1.54c2.4-1.18,3.15-4.34,3.37-7.22.2.72.42,1.43.65,2.13.62,1.84,1.36,4.1,3.1,5.18a12.13,12.13,0,0,0,4.94,1.53A12.21,12.21,0,0,0,333.68,89.43Z" transform="translate(0 0)"/><path class="cls-12" d="M87.45,171.76a.34.34,0,0,0-.39-.31c-3.07.09-6.87.06-9.62-1.46-1.88-1-2.58-3.68-3.18-5.6a43.26,43.26,0,0,1-1.11-4.31c-.09-.46-.8-.35-.8.1,0,3.21-.09,8.5-3.6,9.83-3.13,1.19-6.81,1.36-10.13,1.44a.41.41,0,0,0,0,.81c3.4.19,7.41.79,10.28,2.72,3.21,2.16,3.34,7.45,3.35,11a.41.41,0,0,0,.81,0,28.38,28.38,0,0,1,.62-4.1c.49-2.26,1.19-5,3-6.59s4.2-2,6.34-2.44a32.55,32.55,0,0,1,4-.54A.41.41,0,0,0,87.45,171.76Zm-11.35,2.9c-1.79,1.61-2.74,4.16-3.27,6.74-.33-2.68-1.15-5.35-3.14-6.85A15.27,15.27,0,0,0,63.48,172a18.29,18.29,0,0,0,6.22-1.54c2.41-1.18,3.16-4.34,3.38-7.22.2.72.41,1.43.65,2.13.62,1.83,1.36,4.1,3.1,5.17a12,12,0,0,0,4.94,1.54A12.3,12.3,0,0,0,76.1,174.66Z" transform="translate(0 0)"/><path class="cls-12" d="M44.45,287.66a.35.35,0,0,0-.39-.32c-3.07.1-6.87.07-9.62-1.46-1.88-1-2.59-3.68-3.18-5.6A43.26,43.26,0,0,1,30.15,276a.41.41,0,0,0-.8.1c0,3.21-.09,8.5-3.6,9.83-3.13,1.19-6.81,1.36-10.14,1.44a.41.41,0,0,0,0,.81c3.41.19,7.42.79,10.29,2.73,3.2,2.15,3.33,7.44,3.35,10.94a.41.41,0,0,0,.81,0,29.81,29.81,0,0,1,.61-4.1c.49-2.26,1.2-5,3-6.59s4.2-2,6.34-2.44a34.26,34.26,0,0,1,4.05-.54A.4.4,0,0,0,44.45,287.66Zm-11.36,2.9c-1.78,1.6-2.73,4.15-3.26,6.73-.33-2.68-1.15-5.35-3.15-6.85a15.17,15.17,0,0,0-6.2-2.52,18.12,18.12,0,0,0,6.22-1.54c2.41-1.18,3.16-4.34,3.38-7.22.2.72.41,1.43.65,2.13.62,1.84,1.36,4.1,3.09,5.18A12.13,12.13,0,0,0,38.76,288,12.25,12.25,0,0,0,33.09,290.56Z" transform="translate(0 0)"/><path class="cls-12" d="M84.71,390.15a18.78,18.78,0,0,1-1.38-1.81,7.37,7.37,0,0,1-1.53-3.45,6.8,6.8,0,0,1,1.41-3.77,16.81,16.81,0,0,1,1.37-1.86c.19-.22-.11-.53-.32-.32-1.38,1.38-3.51,3.4-5.62,3a11.71,11.71,0,0,1-5.11-3,.23.23,0,0,0-.32.32,17.65,17.65,0,0,1,3.42,4.55c.85,1.9-1.18,4-2.45,5.28-.18.18,0,.5.27.36a22.9,22.9,0,0,1,2.13-1.26c1-.52,2.31-1.28,3.46-.95a10.73,10.73,0,0,1,4.35,3.21.2.2,0,0,0,.28,0A.22.22,0,0,0,84.71,390.15Zm-2.14-2A6.75,6.75,0,0,0,80,386.78a5.14,5.14,0,0,0-3.25.82c-.37.18-.73.38-1.09.58,1-1.22,2-2.76,1.51-4.16A10.11,10.11,0,0,0,75.35,381a8.48,8.48,0,0,0,3.43,1.45A5.43,5.43,0,0,0,82.71,381a5.6,5.6,0,0,0-.14,7.16Z" transform="translate(0 0)"/><path class="cls-12" d="M469.08,155.31a17.29,17.29,0,0,1-1.38-1.81,7.49,7.49,0,0,1-1.54-3.45,6.74,6.74,0,0,1,1.42-3.77,15.63,15.63,0,0,1,1.37-1.86.23.23,0,0,0-.32-.32c-1.38,1.38-3.51,3.41-5.62,3a11.8,11.8,0,0,1-5.12-3,.23.23,0,0,0-.32.32A17.21,17.21,0,0,1,461,149c.86,1.9-1.17,4-2.45,5.28-.18.18.06.5.27.36a23.05,23.05,0,0,1,2.14-1.26c1-.52,2.3-1.28,3.45-1a10.77,10.77,0,0,1,4.36,3.21.19.19,0,0,0,.28,0A.22.22,0,0,0,469.08,155.31Zm-2.14-2a6.75,6.75,0,0,0-2.55-1.34,5.17,5.17,0,0,0-3.25.82c-.37.18-.74.38-1.1.58,1-1.22,2-2.75,1.52-4.16a10.14,10.14,0,0,0-1.85-3.06,8.59,8.59,0,0,0,3.43,1.45,5.46,5.46,0,0,0,3.94-1.45,5.56,5.56,0,0,0-.14,7.16Z" transform="translate(0 0)"/><path class="cls-12" d="M361.11,205.06a18.87,18.87,0,0,1-1.39-1.81,7.47,7.47,0,0,1-1.53-3.45A6.8,6.8,0,0,1,359.6,196a15.71,15.71,0,0,1,1.38-1.86c.18-.21-.12-.52-.32-.32-1.39,1.38-3.52,3.41-5.63,3a11.71,11.71,0,0,1-5.11-3,.23.23,0,0,0-.32.32,17.21,17.21,0,0,1,3.42,4.55c.85,1.9-1.18,4-2.45,5.28-.18.18.06.5.27.36a22.9,22.9,0,0,1,2.13-1.26c1-.52,2.31-1.28,3.46-1a10.83,10.83,0,0,1,4.36,3.21.18.18,0,0,0,.27,0A.22.22,0,0,0,361.11,205.06ZM359,203a6.79,6.79,0,0,0-2.54-1.34,5.21,5.21,0,0,0-3.26.82c-.37.18-.73.38-1.09.58,1.05-1.22,2-2.75,1.51-4.16a10.11,10.11,0,0,0-1.84-3.06,8.54,8.54,0,0,0,3.43,1.45,5.43,5.43,0,0,0,3.93-1.45,6.87,6.87,0,0,0-1.36,3.93A6.74,6.74,0,0,0,359,203Z" transform="translate(0 0)"/><path class="cls-12" d="M253,81.59a20.07,20.07,0,0,1-1.39-1.8A7.51,7.51,0,0,1,250,76.33a6.86,6.86,0,0,1,1.41-3.77,16.46,16.46,0,0,1,1.38-1.85c.18-.22-.12-.53-.33-.32-1.38,1.37-3.51,3.4-5.62,3a11.63,11.63,0,0,1-5.11-3c-.22-.19-.53.11-.32.32a17.42,17.42,0,0,1,3.42,4.55c.85,1.91-1.18,4-2.45,5.29-.18.17.06.5.27.35q1-.68,2.13-1.26c1-.52,2.31-1.28,3.46-1,1.68.48,3.18,2,4.36,3.21a.18.18,0,0,0,.27,0A.23.23,0,0,0,253,81.59Zm-2.15-2a6.79,6.79,0,0,0-2.54-1.34,5.15,5.15,0,0,0-3.26.82c-.37.18-.73.38-1.09.58,1.05-1.22,2-2.76,1.51-4.17a10.07,10.07,0,0,0-1.84-3A8.54,8.54,0,0,0,247,73.86a5.48,5.48,0,0,0,3.93-1.46,6.87,6.87,0,0,0-1.36,3.93A6.74,6.74,0,0,0,250.8,79.57Z" transform="translate(0 0)"/><path class="cls-12" d="M207.15,165.22a18.28,18.28,0,0,1-1.38-1.8,7.41,7.41,0,0,1-1.53-3.46,6.65,6.65,0,0,1,1.41-3.76,16.81,16.81,0,0,1,1.37-1.86c.19-.22-.11-.53-.32-.32-1.38,1.37-3.51,3.4-5.62,3a11.72,11.72,0,0,1-5.12-3,.23.23,0,0,0-.32.33,17.14,17.14,0,0,1,3.43,4.55c.85,1.9-1.18,4-2.46,5.28-.17.17.06.5.28.35.68-.45,1.4-.87,2.13-1.26,1-.52,2.3-1.28,3.46-.95,1.68.48,3.18,2,4.35,3.21a.2.2,0,0,0,.28,0A.23.23,0,0,0,207.15,165.22Zm-2.14-2a6.75,6.75,0,0,0-2.55-1.34,5.14,5.14,0,0,0-3.25.82c-.37.18-.73.38-1.09.58,1-1.22,2-2.76,1.51-4.17a10.1,10.1,0,0,0-1.85-3.05,8.58,8.58,0,0,0,3.44,1.45,5.47,5.47,0,0,0,3.93-1.46,5.58,5.58,0,0,0-.14,7.17Z" transform="translate(0 0)"/><path class="cls-12" d="M391.89,445.78a20.07,20.07,0,0,1-1.39-1.8,7.52,7.52,0,0,1-1.53-3.45,6.8,6.8,0,0,1,1.41-3.77,15.71,15.71,0,0,1,1.38-1.86c.18-.22-.12-.53-.32-.32-1.39,1.37-3.52,3.4-5.63,3a11.71,11.71,0,0,1-5.11-3,.23.23,0,0,0-.32.32,17,17,0,0,1,3.42,4.55c.85,1.9-1.18,4-2.45,5.28-.18.17.06.5.27.35q1-.68,2.13-1.26c1-.51,2.31-1.28,3.46-.95a10.86,10.86,0,0,1,4.36,3.21.18.18,0,0,0,.27,0A.23.23,0,0,0,391.89,445.78Zm-2.15-2a6.79,6.79,0,0,0-2.54-1.34,5.15,5.15,0,0,0-3.26.82c-.37.18-.73.38-1.09.58,1-1.22,2-2.76,1.51-4.17a10.19,10.19,0,0,0-1.84-3,8.54,8.54,0,0,0,3.43,1.45,5.44,5.44,0,0,0,3.93-1.46,6.9,6.9,0,0,0-1.36,3.94A6.74,6.74,0,0,0,389.74,443.76Z" transform="translate(0 0)"/><path class="cls-12" d="M477.94,277.78a.35.35,0,0,0-.39-.32c-3.08.09-6.88.06-9.62-1.46-1.89-1-2.59-3.68-3.19-5.6a43.26,43.26,0,0,1-1.11-4.31c-.09-.46-.8-.35-.8.1,0,3.21-.09,8.5-3.59,9.83-3.14,1.19-6.81,1.36-10.14,1.44a.41.41,0,0,0,0,.81c3.4.19,7.41.79,10.28,2.72,3.21,2.16,3.34,7.45,3.35,10.95a.41.41,0,0,0,.82,0,28.36,28.36,0,0,1,.61-4.1c.49-2.26,1.19-5,3-6.59s4.19-2,6.33-2.44a32.7,32.7,0,0,1,4.06-.54A.41.41,0,0,0,477.94,277.78Zm-11.36,2.89c-1.78,1.61-2.73,4.16-3.26,6.74-.34-2.68-1.15-5.35-3.15-6.85A15.15,15.15,0,0,0,454,278a18.35,18.35,0,0,0,6.23-1.54c2.4-1.18,3.15-4.34,3.37-7.22.2.72.42,1.43.65,2.13.63,1.84,1.37,4.1,3.1,5.17a12.14,12.14,0,0,0,4.94,1.54A12.34,12.34,0,0,0,466.58,280.67Z" transform="translate(0 0)"/></g><path class="cls-12" d="M293.83,43.65c6.83,0,6.84-10.62,0-10.62s-6.84,10.62,0,10.62Z" transform="translate(0 0)"/><path class="cls-12" d="M170.83,103.4c6.52,0,6.53-10.13,0-10.13s-6.53,10.13,0,10.13Z" transform="translate(0 0)"/><path class="cls-12" d="M97.43,324.35l-.46.73a4.47,4.47,0,1,0,7.72,0l-.46-.73a4,4,0,0,0-6.8,0Z" transform="translate(0 0)"/><path class="cls-12" d="M336.45,428.35l.56-.16a5,5,0,0,0,2.56-1.77,4.77,4.77,0,0,0,1.06-3,5.08,5.08,0,0,0-3.62-4.75l-.56-.16a5.1,5.1,0,1,0,0,9.83Z" transform="translate(0 0)"/><path class="cls-12" d="M430.76,376c7.78,0,7.8-12.1,0-12.1s-7.79,12.1,0,12.1Z" transform="translate(0 0)"/><path class="cls-12" d="M322.94,155.56c7.32,0,7.34-11.39,0-11.39s-7.35,11.39,0,11.39Z" transform="translate(0 0)"/><path class="cls-12" d="M405.83,256.73c5.66,0,5.66-8.79,0-8.79s-5.66,8.79,0,8.79Z" transform="translate(0 0)"/><path class="cls-12" d="M430.25,197.54c7.11,0,7.12-11,0-11s-7.11,11,0,11Z" transform="translate(0 0)"/><path class="cls-12" d="M375.58,129.68l.9-.34,1.49-.63a4.73,4.73,0,0,0,1.75-1.6,5.94,5.94,0,0,0,1.33-3.77,7.29,7.29,0,0,0-.85-3.14,6.5,6.5,0,0,0-3.72-2.86l-.9-.34a6.57,6.57,0,0,0-6.4,1.69,6.59,6.59,0,0,0,0,9.3,6.57,6.57,0,0,0,6.4,1.69Z" transform="translate(0 0)"/><path class="cls-12" d="M206.83,41c7.24,0,7.25-11.25,0-11.25S199.58,41,206.83,41Z" transform="translate(0 0)"/><path class="cls-12" d="M48.35,107.09a6.16,6.16,0,0,0-.8.57,5,5,0,0,0-1.42,1.52l-.52.69L45.12,111A3.7,3.7,0,0,0,45,113a4.68,4.68,0,0,0,1.34,2.8,5.75,5.75,0,0,0,2.16,1.26,4.88,4.88,0,0,0,3.77-.49L53,116a11,11,0,0,0,1.13-.91,6.2,6.2,0,0,0,1-1.31,5,5,0,0,0-.77-6,5,5,0,0,0-6-.77Z" transform="translate(0 0)"/><path class="cls-12" d="M34.66,225.94l.24-.93a6.29,6.29,0,0,0-1.62-6.12,6.28,6.28,0,0,0-8.9,0A6.39,6.39,0,0,0,22.76,225l.24.93.61,1.45a4.64,4.64,0,0,0,1.56,1.7,5.8,5.8,0,0,0,3.66,1.29,7.08,7.08,0,0,0,3.05-.82,6.12,6.12,0,0,0,2.78-3.62Z" transform="translate(0 0)"/><path class="cls-12" d="M119.25,396.27c-.15.38-.3.77-.46,1.15a4.47,4.47,0,0,0,5.5,5.49l1.15-.46a5.06,5.06,0,0,0,3.51-3.51,5,5,0,1,0-9.7-2.67Z" transform="translate(0 0)"/><path class="cls-12" d="M134.48,196.48c5.88,0,5.89-9.14,0-9.14s-5.89,9.14,0,9.14Z" transform="translate(0 0)"/><path class="cls-12" d="M265.83,440.36l-.62,0c-5.61-.45-4.93,9.44,1.07,7.89l.58-.14c3.68-.95,3.68-6.51,0-7.46l-.58-.15c-5.92-1.52-6.76,8.35-1.07,7.9l.62-.05a4,4,0,0,0,0-7.95Z" transform="translate(0 0)"/><path class="cls-12" d="M243.61,117.73c0,1.46,1,36,2.21,50.7.65,7.94,2.49,26,4.06,41.06l-7.64,6.57,64,50.86,3.91-6.64c15-.89,32.92-2,40.79-2.65,14.71-1.2,48.94-5.88,50.39-6.08A14.56,14.56,0,0,0,408.78,226c-3-2.58-6.37-3.26-10.64-2.68-.34,0-35.65,4.12-49.58,5.26-7.31.6-24.16,1.65-38.77,2.52l-31.12-26.4c-1.52-14.56-3.23-31.35-3.83-38.67-1.14-13.92-2.87-49.42-2.88-49.77-.12-4.31-1.33-7.48-4.38-10.06a14.56,14.56,0,0,0-24,11.51Z" transform="translate(0 0)"/><path class="cls-13" d="M303.89,250.16c-7.63-10.67-17.79-19.51-28.73-26.65a108.09,108.09,0,0,0-26.59-12.89l-6.33,5.44,64,50.86,3.75-6.37A64.11,64.11,0,0,0,303.89,250.16Z" transform="translate(0 0)"/><path class="cls-13" d="M243.61,117.73c0,1,.51,18.31,1.21,33.62A53.78,53.78,0,0,1,274,152.56c-.75-15.7-1.3-35.37-1.31-35.63a14.56,14.56,0,1,0-29.11.8Z" transform="translate(0 0)"/><path class="cls-13" d="M366.91,240.2a36.22,36.22,0,0,1-1,15.87c15.68-1.83,34.31-4.37,35.37-4.52a14.56,14.56,0,0,0-3.95-28.86c-.25,0-19.11,2.62-34.58,4.42A40.11,40.11,0,0,1,366.91,240.2Z" transform="translate(0 0)"/><path class="cls-4" d="M273.67,142.35l-28.3,2.32a1.1,1.1,0,0,1-1.18-1L242.49,123c-.14-1.69-5-3.5-9.47-4-3.78-.43-9.86-1.15-10.43-6.7a8.45,8.45,0,0,1,4.53-8.15c3.58-2,6.8-1.84,9.83-2.17,9.49-1,11-.47,20.45-1.67,4.13-.53,8.8-.91,12,1.75,2.4,2,2.65,7.27,3.21,14.09l2.05,25A1.1,1.1,0,0,1,273.67,142.35Z" transform="translate(0 0)"/><g class="cls-14"><path class="cls-4" d="M241,107.6c3.73-.33,7.45-.57,11.16-1,2.65-.34,5.77-.79,8.31.32s3.3,4.05,3.87,6.51a89.87,89.87,0,0,1,1.92,10c.73,6.47.54,13,1.28,19.44l6.13-.5a1.1,1.1,0,0,0,1-1.18l-2.05-25c-.56-6.82-.81-12.1-3.21-14.09-3.21-2.66-7.88-2.28-12-1.75-9.47,1.2-11,.66-20.45,1.67-3,.33-6.25.21-9.83,2.17a8.71,8.71,0,0,0-4.33,5.53C228.84,108.82,234.91,108.12,241,107.6Z" transform="translate(0 0)"/></g><path class="cls-3" d="M276.65,138.84a4.6,4.6,0,0,1-4.69,7.78,29.88,29.88,0,0,0-12.06-1.42A70.94,70.94,0,0,0,245.63,148a4.6,4.6,0,1,1-2.89-8.73A78.7,78.7,0,0,1,259.15,136a38.68,38.68,0,0,1,16.23,2A4.76,4.76,0,0,1,276.65,138.84Z" transform="translate(0 0)"/><path class="cls-4" d="M372.15,225.9l2.32,28.3a1.1,1.1,0,0,0,1.18,1l20.68-1.7c1.7-.14,4.27,4.39,5.5,8.69,1,3.66,2.74,9.54,8.31,9.2a8.44,8.44,0,0,0,7.3-5.8c1.36-3.85.72-7,.54-10-.55-9.53-1.32-10.91-1.67-20.45-.16-4.17-.54-8.83-3.69-11.57-2.35-2-7.6-1.43-14.42-.87l-25.05,2.05A1.1,1.1,0,0,0,372.15,225.9Z" transform="translate(0 0)"/><g class="cls-14"><path class="cls-4" d="M372.59,231.23c5.15-.91,10.31-1.78,15.52-2.24a65.44,65.44,0,0,1,11.11-.14c3.15.25,6.91.74,9.23,3.11s2.57,5.55,2.66,8.63c.13,3.85.18,7.68,0,11.53-.3,6.42-.94,12.83-.74,19.24a8.43,8.43,0,0,0,7.07-5.76c1.36-3.85.72-7,.54-10-.55-9.53-1.32-10.91-1.67-20.45-.16-4.17-.54-8.83-3.69-11.57-2.35-2-7.6-1.43-14.42-.87l-25.05,2.05a1.1,1.1,0,0,0-1,1.18Z" transform="translate(0 0)"/></g><path class="cls-3" d="M375.12,222.39a4.57,4.57,0,0,1,1,1.13,38.79,38.79,0,0,1,4.66,15.68,79.06,79.06,0,0,1-.55,16.72,4.6,4.6,0,0,1-9.09-1.43h0a69.62,69.62,0,0,0,.47-14.54,30,30,0,0,0-3.36-11.67,4.6,4.6,0,0,1,6.91-5.89Z" transform="translate(0 0)"/><path class="cls-12" d="M258.82,285.09c5.28,4.48,30.31,27.11,36.27,58.08,5.72,29.7-8.23,55.84-8.83,56.94a11,11,0,0,1-19.32-10.46c.17-.32,10.76-20.59,6.58-42.32-5-26.11-29.15-45.68-29.39-45.88a11,11,0,0,1,13.74-17.14C258,284.39,258.31,284.66,258.82,285.09Z" transform="translate(0 0)"/><path class="cls-13" d="M293.37,381.11a99.79,99.79,0,0,0-11.64-3.47A89.81,89.81,0,0,0,272,376a72.51,72.51,0,0,1-5.06,13.65,11,11,0,0,0,19.32,10.46A91.22,91.22,0,0,0,293.37,381.11Z" transform="translate(0 0)"/><path class="cls-3" d="M286.43,420.55c-2.31,1.32-4.09-.45-4.83-2.95a41.52,41.52,0,0,1-.64-6.52.3.3,0,0,0-.6-.06c-.48,1.89-1.21,4.72-1.8,7-1,3.7-1.9,6.24-3.17,7.47a3.4,3.4,0,0,1-3.35.65c-2.09-.65-2.7-2.66-2.3-5.75.14-1.12,1.14-7,1.72-10.44a.31.31,0,0,0-.58-.18c-1.08,2.45-2.76,6.19-3.57,7.76-1.75,3.37-5.38,4.85-7.44,1.8-.55-.81-.72-3-.22-4.76,1.6-5.57,2.16-7.17,3.93-12.34a.31.31,0,0,0-.5-.33c-2.35,2.2-5.07,4-8.32,2.44-2.45-1.19-3.81-3.86,3.69-10.45,2.48-2.18,8.05-6,12.46-6.54s11.33.83,15.66,5.53c4.74,5.13,4,15.45,2.74,21.39C288.73,417,287.75,419.79,286.43,420.55Z" transform="translate(0 0)"/><g class="cls-14"><path class="cls-15" d="M254.76,404.3l.13.05c5-5.82,11.11-10.69,19.23-10.23,4.59.27,9.83,2.37,12.48,6.27,1.59,2.33,2.4,5.36,3.51,8.16.44-5.53-.1-12-3.54-15.71-4.33-4.7-11.25-6.09-15.66-5.53s-10,4.36-12.46,6.54C251,400.44,252.31,403.11,254.76,404.3Z" transform="translate(0 0)"/></g><path class="cls-4" d="M292.92,387.92a4.6,4.6,0,0,1-5.41,7.41,48.15,48.15,0,0,0-9-3.87,33.51,33.51,0,0,0-8.94-1.93,4.6,4.6,0,0,1,.11-9.2,40.78,40.78,0,0,1,11.77,2.42,55.4,55.4,0,0,1,10.93,4.78A5.17,5.17,0,0,1,292.92,387.92Z" transform="translate(0 0)"/><path class="cls-12" d="M233.73,263.8l.93.81A11,11,0,0,1,220,281c-.22-.2-23.69-20.82-50-21.52-22.19-.59-40.51,13.24-40.69,13.38a11,11,0,1,1-13.46-17.36c1-.77,24.5-18.79,54.74-18C202.05,238.31,228.44,259.32,233.73,263.8Z" transform="translate(0 0)"/><path class="cls-13" d="M132.86,245.58a90.84,90.84,0,0,0-17.08,9.88,11,11,0,1,0,13.46,17.36,72.79,72.79,0,0,1,12.6-7.19A62.23,62.23,0,0,0,132.86,245.58Z" transform="translate(0 0)"/><path class="cls-3" d="M95.58,258.62c-.93,2.49,1.11,4,3.7,4.29a41.19,41.19,0,0,0,6.53-.44.31.31,0,0,1,.16.59c-1.78.78-4.46,2-6.57,2.91-3.49,1.57-5.85,2.88-6.86,4.34a3.4,3.4,0,0,0-.09,3.41c1,2,3.06,2.23,6,1.33,1.08-.32,6.73-2.26,10-3.39a.3.3,0,0,1,.27.54c-2.24,1.47-5.66,3.73-7.07,4.78-3,2.28-3.92,6.11-.57,7.65a7.08,7.08,0,0,0,4.73-.57c5.23-2.49,6.72-3.3,11.53-5.88a.3.3,0,0,1,.41.43c-1.79,2.68-3.13,5.66-1,8.62,1.57,2.22,4.42,3.13,9.7-5.35,1.75-2.8,4.59-8.92,4.43-13.36s-2.67-11-8-14.55c-5.83-3.84-15.89-1.41-21.55.78C98.68,255.78,96.11,257.19,95.58,258.62Z" transform="translate(0 0)"/><g class="cls-14"><path class="cls-15" d="M121.42,261.1a17.65,17.65,0,0,1,3.17,14.81c-1.22,4.59-4.23,8.39-6.19,12.67,1.71.64,4.25-.56,8.08-6.7,1.75-2.8,4.59-8.92,4.43-13.36s-2.67-11-8-14.55c-4.54-3-11.62-2.18-17.21-.64C111.78,253.84,117.63,256.12,121.42,261.1Z" transform="translate(0 0)"/></g><path class="cls-4" d="M126.72,246.9a4.17,4.17,0,0,1,.47.47,54.81,54.81,0,0,1,6.5,10,40.82,40.82,0,0,1,4.3,11.22,4.6,4.6,0,1,1-9.06,1.57,33.87,33.87,0,0,0-3.36-8.47,48.6,48.6,0,0,0-5.28-8.24,4.6,4.6,0,0,1,6.43-6.55Z" transform="translate(0 0)"/><path class="cls-12" d="M243.07,213.07s46.83,24.35,62.3,52.87c-5.28,22.13-50.14,51.2-50.14,51.2l-54.52-46.25S228.35,224.52,243.07,213.07Z" transform="translate(0 0)"/><path class="cls-13" d="M204.11,265.33c-2.13,3.44-3.4,5.56-3.4,5.56l54.52,46.25s1.6-.36,6-3.52C249.51,291.14,222.84,271.5,204.11,265.33Z" transform="translate(0 0)"/><circle class="cls-16" cx="193.04" cy="344.27" r="48.2" transform="translate(-24.33 14.82) rotate(-4.14)"/><circle class="cls-17" cx="235.32" cy="353.8" r="13.31" transform="translate(-151.49 177.94) rotate(-31.92)"/><circle class="cls-18" cx="195.68" cy="327.74" r="48.2" transform="translate(-184.12 365.91) rotate(-64.9)"/><g class="cls-14"><path class="cls-18" d="M229,362.73c-2.15-1.06-4.83-.86-7.13-.57-5.58.7-11,2.62-16.3,4.37-3.65,1.2-7.69,3-11.59,3-2.43,0-5.82-.33-7.3-2.57s-.82-5.2-.58-7.55c.84-8.12,1.67-16.7-2.68-23.94a48.4,48.4,0,0,0-8.43,7.08.51.51,0,0,1-.88-.28c-1-9.51-5-18.65-13.14-24.16a30.8,30.8,0,0,0-14.2-5c-8.13,14.56-7.53,29.93,17.76,51.39,32.64,27.69,48.58,16.48,64.59-1.69Z" transform="translate(0 0)"/></g><path class="cls-19" d="M174.73,375.89c-2.06,2.71-5,6.34-5.72,9.74a.66.66,0,0,0,.37.78l.06,0c11.57,6.26,25.94,5.74,38,1.21,11-4.1,21.52-15.18,21.24-27.55a.78.78,0,0,0-1.2-.57,79.36,79.36,0,0,1-39.82,13.29c-3.12.16-6.58-.4-9.63.34C176.5,373.56,175.69,374.64,174.73,375.89Z" transform="translate(0 0)"/><path class="cls-20" d="M174.73,375.89c-2.06,2.71-5,6.34-5.72,9.74a.66.66,0,0,0,.37.78l.06,0c11.57,6.26,25.94,5.74,38,1.21.34-.12.68-.28,1-.42-3.3-2-16.85-10.42-16.64-10.42,19.84-.53,32.92-13.5,35.83-17.37l-.18.09a79.36,79.36,0,0,1-39.82,13.29c-3.12.16-6.58-.4-9.63.34C176.5,373.56,175.69,374.64,174.73,375.89Z" transform="translate(0 0)"/><path class="cls-19" d="M143.75,308.29c-7.09,13-10.39,27.66-6.58,42.17,2.19,7.72,7.48,14.36,12.91,20.09a97,97,0,0,0,19.36,15.91.79.79,0,0,0,.76-.06c15.77-9.58,16-29.83,10.61-45.43a.77.77,0,0,0-1.3-.24l-8.95,11.33a52.41,52.41,0,0,0-25.79-44.14A.79.79,0,0,0,143.75,308.29Z" transform="translate(0 0)"/><path class="cls-20" d="M177.64,369.41a.5.5,0,0,1-1-.05c-.53-2.75-1-5.5-1.34-8.28a41.72,41.72,0,0,1-3.71,5.5.5.5,0,0,1-.7.06,96.75,96.75,0,0,1-30.58-51.19c-4.61,11.09-6.27,23.11-3.15,35,2.19,7.72,7.48,14.36,12.91,20.09a97,97,0,0,0,19.36,15.91.79.79,0,0,0,.76-.06c15-9.11,16-27.84,11.37-43.07A98.53,98.53,0,0,1,177.64,369.41Z" transform="translate(0 0)"/><path class="cls-20" d="M159.91,331.11a61.57,61.57,0,0,1,7.3,23.35,28.71,28.71,0,0,0,3.09-6.89,52.67,52.67,0,0,0-14.7-31.19c-.7,6.08-.9,12.25,1.16,18a29,29,0,0,0,2.28-3.2A.5.5,0,0,1,159.91,331.11Z" transform="translate(0 0)"/><path class="cls-21" d="M204.66,343.87a7.67,7.67,0,1,1,.89,10.81A7.66,7.66,0,0,1,204.66,343.87Z" transform="translate(0 0)"/><path class="cls-21" d="M166.61,311.59a7.66,7.66,0,1,1,.88,10.8A7.66,7.66,0,0,1,166.61,311.59Z" transform="translate(0 0)"/><path class="cls-22" d="M190.11,336.13c3.67-1,7.44-3.79,8.34-7.69.26-1.14-1.29-1.44-1.81-.57-1.85,3.05-3.52,5.57-7,7a.67.67,0,0,0,.44,1.26Z" transform="translate(0 0)"/><path class="cls-12" d="M132,313.2c-4.27,8-7.22,16.83-7.11,25.87.17,13.12,6.76,25.44,15.26,35.45a87.2,87.2,0,0,0,30.17,23.13c9.08,4.12,19.27,6.49,29.06,4.63,8-1.52,15-5.77,21.33-10.74,4.68-3.67,8.34-8.6,13.35-11.86,4.8-3.11,24.26-10.94,27.35-35.12,2.13-16.64-9.36-44.4-45.62-65.14-27.72-15.85-46.81-4.5-58.12,4.13S136.24,305.23,132,313.2Zm27.15-10.79c7.42-8.13,18.73-12.8,29.66-11.46,9.67,1.19,18.25,6.72,25.77,12.92a159.66,159.66,0,0,1,17.24,16.67c6.05,6.75,11.9,14.62,12.13,23.68a27.15,27.15,0,0,1-1.48,9.14c-5,15.27-20,26.24-36,28S177,378.82,162.9,364.77,146,341.89,145.5,330.89,151.68,310.54,159.11,302.41Z" transform="translate(0 0)"/><path class="cls-13" d="M230.19,298.83c8.1,6.11,26.56,26.41,31.18,45.73,2.13-16.64-9.36-44.4-45.62-65.14-18.05-10.32-32.44-9.11-43.4-4.62C195.29,274.34,213.75,286.44,230.19,298.83Z" transform="translate(0 0)"/><path class="cls-23" d="M144.63,306.27c3.92,2,12.54-4.16,15.62-7.85,2.5-3,5.64-8.37,2.92-12.18-1.57-2.19-4.12-2.45-6.57-1.88a99.77,99.77,0,0,0-12.92,12.49C143,298.53,140.28,304,144.63,306.27Z" transform="translate(0 0)"/><g class="cls-14"><path class="cls-23" d="M147.91,299.48a5.52,5.52,0,0,0,3.94-1.26,15.13,15.13,0,0,0,3.58-3.47c1-1.48,2.11-4.43.41-5.84-1.07-.89-2.68-.75-4.25-.25q-1.69,1.59-3.33,3.24c-1.29,1.31-3,3.92-2.23,5.86A2.49,2.49,0,0,0,147.91,299.48Z" transform="translate(0 0)"/></g><g class="cls-24"><path class="cls-25" d="M223.46,341c-15.53,4.57-31.05,9.24-46.85,12.82-6.72,1.51-13.48,2.82-20.28,3.83,1.86,2.24,4,4.6,6.57,7.15.51.51,1,1,1.55,1.5,13.88-2.66,27.78-5.23,41.45-8.85a179.5,179.5,0,0,0,37.95-14.26,25.11,25.11,0,0,0-1.82-7.5C235.83,337.37,229.64,339.16,223.46,341Z" transform="translate(0 0)"/><path class="cls-25" d="M210.28,318.33c-16.85,4.13-33.79,7.95-50.86,11.11q-6.91,1.28-13.87,2.4a38.61,38.61,0,0,0,2.87,13.31,363.64,363.64,0,0,0,48-8.22,364.65,364.65,0,0,0,39.23-11.76c-1.26-1.6-2.58-3.14-3.91-4.63Q229,317.4,226,314.39,218.15,316.4,210.28,318.33Z" transform="translate(0 0)"/></g><path class="cls-4" d="M237.85,289.28c17.82,15.12,22.45,26.53,22.64,27a4.6,4.6,0,0,1-8.54,3.4c-.09-.2-4.31-10-20-23.4l0,0c-19.18-16.26-31.54-19.6-31.66-19.63a4.6,4.6,0,1,1,2.24-8.93c.57.15,14.32,3.7,35.37,21.55Z" transform="translate(0 0)"/><path class="cls-3" d="M284,234.91c17.55,14.89,25.89,29.1,26.24,29.7a4.6,4.6,0,0,1-8,4.62h0c-.08-.13-8-13.51-24.24-27.3l0,0A123.08,123.08,0,0,0,252.19,225,74.5,74.5,0,0,0,241,220.49a4.6,4.6,0,0,1,2.43-8.87c.78.21,19.48,5.45,40.49,23.26Z" transform="translate(0 0)"/><rect class="cls-23" x="229.87" y="254.84" width="41.09" height="27.07" rx="8.26" transform="translate(267.73 635.03) rotate(-139.69)"/><rect class="cls-3" x="229.72" y="257.39" width="41.09" height="27.07" rx="8.26" transform="translate(265.81 639.43) rotate(-139.69)"/><polygon class="cls-4" points="260.58 261.93 262.14 263.25 254.04 272.79 259.24 277.2 249.82 288.3 248.26 286.98 256.36 277.44 251.16 273.03 260.58 261.93"/><rect class="cls-12" x="231.19" y="265.21" width="27.07" height="2.04" transform="translate(-116.61 280.59) rotate(-49.69)"/><rect class="cls-4" x="234.08" y="263.52" width="1.02" height="7.41" transform="translate(-120.95 273.21) rotate(-49.69)"/><rect class="cls-4" x="235.65" y="261.67" width="1.02" height="7.41" transform="translate(-118.98 273.76) rotate(-49.69)"/><rect class="cls-4" x="237.22" y="259.82" width="1.02" height="7.41" transform="translate(-117.02 274.31) rotate(-49.69)"/><rect class="cls-12" x="262.23" y="272.7" width="1.02" height="7.41" transform="translate(-118.01 297.92) rotate(-49.69)"/><rect class="cls-12" x="263.8" y="270.85" width="1.02" height="7.41" transform="translate(-116.04 298.46) rotate(-49.69)"/><rect class="cls-12" x="265.37" y="269" width="1.02" height="7.41" transform="translate(-114.08 299.01) rotate(-49.69)"/><path class="cls-12" d="M249.54,274.88a3.83,3.83,0,1,1-5.4.45A3.84,3.84,0,0,1,249.54,274.88Zm-4.3,5.07a2.81,2.81,0,1,0-.32-4A2.81,2.81,0,0,0,245.24,280Z" transform="translate(0 0)"/><path class="cls-23" d="M275.93,257.74a8,8,0,1,1,.92,11.24A8,8,0,0,1,275.93,257.74Z" transform="translate(0 0)"/><path class="cls-25" d="M334.66,258.77c-.79,2.57-6.09,17.85-21.71,22.05-18.54,5-31-8.15-35-15.79a4.6,4.6,0,0,1,8.14-4.28c.34.63,8.49,15.49,24.48,11.19,7.75-2.09,12-8.49,13.95-12.53Z" transform="translate(0 0)"/><path class="cls-23" d="M258,242.52a8,8,0,1,0-11.23.92A8,8,0,0,0,258,242.52Z" transform="translate(0 0)"/><path class="cls-25" d="M247.41,184.74c-2.4,1.2-16.62,8.92-18.22,25-1.9,19.11,13.09,29.27,21.28,32a4.6,4.6,0,0,0,2.9-8.73c-.68-.23-16.67-5.86-15-22.34.8-8,6.43-13.2,10.09-15.79Z" transform="translate(0 0)"/><path class="cls-13" d="M293.41,347.56A29.5,29.5,0,0,0,279,342.74c-1.14,0-1.18,1.78-.09,2,4.91.86,9.35,2,13.7,4.54,1,.61,1.77-1.06.78-1.69Z" transform="translate(0 0)"/><path class="cls-13" d="M291.84,337.87a25.75,25.75,0,0,0-15.75,1.24c-1.31.53-.59,2.59.73,2.07a28.7,28.7,0,0,1,14.75-1.82.76.76,0,0,0,.27-1.49Z" transform="translate(0 0)"/><path class="cls-13" d="M171.09,257.71c3.29-4.94,4.54-11.34,2.42-17a1,1,0,0,0-1.95.69,20.43,20.43,0,0,1-1.95,15.38c-.48.85.92,1.77,1.48.94Z" transform="translate(0 0)"/><path class="cls-13" d="M168.4,256.15c.5-5.94-1.86-11.54-7.08-14.67-.95-.57-1.95,1-1.06,1.64,4.23,3.08,7.1,7.63,7.09,13a.53.53,0,0,0,1.05,0Z" transform="translate(0 0)"/><path class="cls-13" d="M341.49,230.26a22.76,22.76,0,0,0-.72,12.59c.21,1.06,1.9.93,1.68-.13a35,35,0,0,1,0-12.17c.07-.53-.71-.83-.92-.29Z" transform="translate(0 0)"/><path class="cls-13" d="M339,230.6a19.34,19.34,0,0,0-3.15,10.53c0,1.31,2,1.15,2-.16a29.26,29.26,0,0,1,2-9.83c.18-.5-.51-1-.85-.54Z" transform="translate(0 0)"/><path class="cls-13" d="M272.82,178.59a34.23,34.23,0,0,1-8.39,3c-.9.21-.58,1.75.33,1.59a24.37,24.37,0,0,0,8.8-3.54c.73-.46,0-1.47-.74-1.08Z" transform="translate(0 0)"/><path class="cls-13" d="M273,176a14.62,14.62,0,0,1-6.69.78c-1-.12-1.27,1.4-.27,1.53a12.88,12.88,0,0,0,7.36-1.18c.68-.33.35-1.4-.4-1.13Z" transform="translate(0 0)"/><path class="cls-13" d="M304.29,246.8a19.41,19.41,0,0,1,2-9.36,1,1,0,0,0-1.75-.81,20.08,20.08,0,0,0-2,10.31.9.9,0,0,0,1.79-.14Z" transform="translate(0 0)"/><path class="cls-13" d="M264.44,216.7a11.28,11.28,0,0,0,8.2-4.39.78.78,0,0,0-1.19-1,11.88,11.88,0,0,1-7.15,3.76.82.82,0,0,0,.14,1.64Z" transform="translate(0 0)"/><path class="cls-13" d="M262.15,309.85a26,26,0,0,0,11-4.54,1,1,0,0,0-1.06-1.57,48.33,48.33,0,0,1-10.19,4.85.65.65,0,0,0,.27,1.26Z" transform="translate(0 0)"/><path class="cls-13" d="M206.69,264.55a65.19,65.19,0,0,0,2.85-6.11c1-2.05,2.08-4,3-6.06.46-1-1-1.62-1.55-.71-2.24,3.59-4.55,8.38-5.26,12.58a.51.51,0,0,0,1,.3Z" transform="translate(0 0)"/><path class="cls-26" d="M313.9,279.41a9.09,9.09,0,0,1-1.91-5.86c.06-1.16-1.7-1.53-1.83-.32a7,7,0,0,0,3.22,6.8c.37.2.74-.29.52-.62Z" transform="translate(0 0)"/><path class="cls-26" d="M307.83,280.39a12.91,12.91,0,0,1-1.73-3.26,12.23,12.23,0,0,1-.22-3.67c0-1-1.5-1-1.69-.08a8.18,8.18,0,0,0,3,7.61.45.45,0,0,0,.66-.6Z" transform="translate(0 0)"/><path class="cls-26" d="M301.41,280.43a12.43,12.43,0,0,1-.35-6.89c.25-1.09-1.48-1.39-1.71-.3a10.81,10.81,0,0,0,1.23,7.61c.27.47,1,.07.83-.42Z" transform="translate(0 0)"/><path class="cls-26" d="M295.8,278.93a7.27,7.27,0,0,1-.42-3.36,12.44,12.44,0,0,1,1-3.05.8.8,0,0,0-1.33-.85c-1.81,2.05-1.4,5.51-.06,7.66a.45.45,0,0,0,.79-.4Z" transform="translate(0 0)"/><path class="cls-26" d="M290.42,276.68a10.18,10.18,0,0,1,2.38-6.93.83.83,0,0,0-1.27-1.08,9.06,9.06,0,0,0-2,8.2c.13.53.91.31.89-.19Z" transform="translate(0 0)"/><path class="cls-26" d="M286.53,272.9c.38-1,.63-2,1.07-3a16.74,16.74,0,0,1,2-2.86c.48-.64-.31-1.71-1-1.12a8.22,8.22,0,0,0-2.75,6.87c.05.33.56.51.7.13Z" transform="translate(0 0)"/><path class="cls-26" d="M281.91,269.24c.47-1.13.78-2.29,1.36-3.38a13.34,13.34,0,0,1,2.46-3.09c.63-.65-.36-1.76-1.08-1.2-2.11,1.67-3.9,4.76-3.57,7.52a.44.44,0,0,0,.83.15Z" transform="translate(0 0)"/><path class="cls-26" d="M319.49,276.94a9.11,9.11,0,0,1-3.52-4.88.82.82,0,0,0-1.55.54,8.05,8.05,0,0,0,4.67,5c.37.15.77-.36.4-.62Z" transform="translate(0 0)"/><path class="cls-26" d="M323.81,273.57a26.07,26.07,0,0,1-6-4.71c-.82-.87-2,.55-1.2,1.42a13.4,13.4,0,0,0,7,4,.35.35,0,0,0,.21-.66Z" transform="translate(0 0)"/><path class="cls-26" d="M328.69,269.06c-2.62-1-4.83-1.73-7-3.59-.92-.77-2.14.68-1.2,1.42,2.16,1.69,5.34,3.16,8.15,2.69.25,0,.37-.41.09-.52Z" transform="translate(0 0)"/><path class="cls-26" d="M331.3,263.84c-1.13-.3-2.32-.39-3.46-.69a9.85,9.85,0,0,1-3.43-1.74c-.73-.52-2,.36-1.27,1.14,1.87,2.14,5.43,2.61,8.12,2.22a.47.47,0,0,0,0-.93Z" transform="translate(0 0)"/><path class="cls-26" d="M279.44,264.72a6.11,6.11,0,0,1,3.91-4.42.69.69,0,0,0-.46-1.31,6.54,6.54,0,0,0-4.42,5.56.49.49,0,0,0,1,.17Z" transform="translate(0 0)"/><path class="cls-26" d="M251.41,241.38a8.81,8.81,0,0,0,3.29-6.11c.11-1-1.49-1.26-1.54-.27a9,9,0,0,1-2.44,5.62c-.37.43.22,1.12.69.76Z" transform="translate(0 0)"/><path class="cls-26" d="M229.65,211.61c2.33,1.63,5.65,2.36,8.32,1.06a.88.88,0,0,0-.59-1.66,10,10,0,0,1-7.19-.24c-.5-.23-1,.5-.54.84Z" transform="translate(0 0)"/><path class="cls-26" d="M245.67,238.88c2.4-.88,5-3.11,5.4-5.76a.81.81,0,0,0-1.52-.48,16.88,16.88,0,0,1-1.58,3.15,9.84,9.84,0,0,1-2.69,2.33c-.42.25-.07.93.39.76Z" transform="translate(0 0)"/><path class="cls-26" d="M230,217.05c2,1.9,5.44,1.82,7.87,1a.78.78,0,0,0-.52-1.48,9.17,9.17,0,0,1-3.64.51,24.85,24.85,0,0,1-3.41-.7.37.37,0,0,0-.3.64Z" transform="translate(0 0)"/><path class="cls-26" d="M231.51,223c1.86,1.6,5.83,1.49,7.64-.11.6-.53.18-1.83-.7-1.39a10.59,10.59,0,0,1-3.21,1.26,10.18,10.18,0,0,1-3.43-.39.36.36,0,0,0-.3.63Z" transform="translate(0 0)"/><path class="cls-26" d="M240.34,234.86c2.54.71,5.35-1.26,6.36-3.52a.84.84,0,0,0-1.52-.71c-1,2.12-2.72,2.91-4.9,3.43-.45.11-.29.7.06.8Z" transform="translate(0 0)"/><path class="cls-26" d="M230.6,204.18c1.13,3.08,5.24,3.36,7.92,2.31a.72.72,0,0,0-.3-1.39c-2.42.18-5.22,1.38-6.81-1.32a.46.46,0,0,0-.81.4Z" transform="translate(0 0)"/><path class="cls-26" d="M233.72,198.45a7.51,7.51,0,0,0,7.18,3.09.82.82,0,0,0-.13-1.64,8.35,8.35,0,0,1-6.25-2.17.54.54,0,0,0-.8.72Z" transform="translate(0 0)"/><path class="cls-26" d="M237.83,192.48a6.76,6.76,0,0,0,5.27,6.29c.92.21,1.44-1.31.51-1.6a7,7,0,0,1-4.84-4.89c-.16-.55-1-.33-.94.2Z" transform="translate(0 0)"/><path class="cls-26" d="M243.72,188c-1.24,2.75.1,6.28,2.39,8.07a.87.87,0,0,0,1.13-1.33c-2.07-1.78-2.64-3.95-2.68-6.59a.44.44,0,0,0-.84-.15Z" transform="translate(0 0)"/><path class="cls-26" d="M235.43,230.06c2.54,1.43,6.74-.34,7.84-3a.82.82,0,0,0-1.36-.87,7.54,7.54,0,0,1-2.81,2.45,11.82,11.82,0,0,1-3.54.63.41.41,0,0,0-.13.77Z" transform="translate(0 0)"/><g class="cls-14"><path class="cls-25" d="M283,261.1c4.49,4.07,7.23,9.62,12.73,12.65C307,280,319.15,272,325.57,262.91a.52.52,0,0,1,.6-.13c2,.67,4.08,1.05,6,1.83a35.15,35.15,0,0,0,2.46-5.84l-10.15.64c-2,4-6.2,10.44-13.95,12.53-16,4.3-24.14-10.56-24.48-11.19a4.6,4.6,0,0,0-6.2-1.92,4.25,4.25,0,0,0-.67.43A6.65,6.65,0,0,1,283,261.1Z" transform="translate(0 0)"/></g><g class="cls-14"><path class="cls-25" d="M247.89,189.5c-1.49,2.77-4,4.53-6.27,6.65a21.13,21.13,0,0,0-6.51,18.21A21.41,21.41,0,0,0,238.6,224a24.4,24.4,0,0,0,3.52,3.37,85.66,85.66,0,0,1,9.76,9.38,11.36,11.36,0,0,1,2.56,4.48,4.58,4.58,0,0,0-1.07-8.18c-.68-.23-16.67-5.86-15-22.34.8-8,6.43-13.2,10.09-15.79Z" transform="translate(0 0)"/></g><path class="cls-27" d="M203.67,320.34c-3.21-3.43-3.91-8.09-1.79-10.88a6.56,6.56,0,0,0-5.66,1.9c-2.88,3.32-1,9.72,4.31,14.3s11.87,5.61,14.76,2.3c1.48-1.71,1.68-4.23.82-6.9a5.37,5.37,0,0,1-1,1.22C212.3,324.94,207.16,324.07,203.67,320.34Z" transform="translate(0 0)"/><path class="cls-22" d="M211,313.66a16.44,16.44,0,0,0-9.1-4.2c-2.12,2.79-1.42,7.45,1.79,10.88,3.49,3.73,8.63,4.6,11.47,1.94a5.37,5.37,0,0,0,1-1.22A17,17,0,0,0,211,313.66Z" transform="translate(0 0)"/></g></g></svg>