<svg xmlns="http://www.w3.org/2000/svg" viewBox="0 0 662.57 300"><defs><style>.cls-1{fill:#0695cf;}.cls-2{fill:#ff9519;}.cls-3{fill:#fff;}</style></defs><title>logo-wiki_1</title><g id="Layer_2" data-name="Layer 2"><g id="marca"><polygon class="cls-1" points="102.43 60 102.43 60 240 60 240 197.57 300 257.57 300 0 42.43 0 42.43 0 102.43 60"/><polygon class="cls-2" points="197.57 240 197.57 240 60 240 60 102.43 0 42.43 0 300 257.57 300 257.57 300 197.57 240"/><path class="cls-3" d="M459.32,168.34,476.64,102h19.08L469.2,198H450l-21.92-68.34L406.14,198H386.66L360,102h19.76l17.59,66,21.24-66h19.35Z"/><path class="cls-3" d="M527.25,198H508.31V102h18.94Z"/><path class="cls-3" d="M607.63,198l-27.88-39.78-11.9,13.12V198H549.17V102h18.68v43.44L606.28,102h24.49l-38,41.81L631,198Z"/><path class="cls-3" d="M662.57,198h-19V102h19Z"/></g></g></svg>