<svg xmlns="http://www.w3.org/2000/svg" viewBox="0 0 313.74 90"><defs><style>.cls-1{fill:#0695cf;}.cls-2{fill:#ff9519;}.cls-3{fill:#e5e5e5;}</style></defs><title>logo</title><g id="Layer_2" data-name="Layer 2"><g id="marca"><polygon class="cls-1" points="11.93 0 28.81 16.88 73.13 16.88 73.13 61.19 90 78.07 90 0 11.93 0"/><polygon class="cls-2" points="16.88 73.13 16.88 28.81 0 11.93 0 90 78.07 90 61.19 73.13 16.88 73.13"/><path class="cls-3" d="M122.52,75.71,108,14.29h10.12l6.25,29.57,4.31,20.41h.26l4.93-20.41,7.31-29.57h11.08l7.22,29.57,4.84,20.32h.26l4.49-20.32,6.43-29.57h9.76L170.13,75.71H159l-7.83-31.77-4.58-18.65h-.17L141.7,43.94l-8,31.77Z"/><path class="cls-3" d="M192.3,75.71V67.62h8.36V22.38H192.3V14.29h26.75v8.09h-8.44V67.62h8.44v8.09Z"/><path class="cls-3" d="M249.94,47l-8.45,9.68v19h-9.94V14.29h9.94V45.44h.36l8.8-11.18,16.54-20h11.62L256.89,40.16l23.68,35.55h-12Z"/><path class="cls-3" d="M287,75.71V67.62h8.36V22.38H287V14.29h26.75v8.09h-8.45V67.62h8.45v8.09Z"/></g></g></svg>