<svg width="296" height="108" viewBox="0 0 296 108" fill="none" xmlns="http://www.w3.org/2000/svg">
<path d="M163.51 85L146.95 31L144.79 23.71H154.87L171.79 79.51L167.02 78.79L181.6 23.71H192.13L175.39 85H163.51ZM124.27 85L107.53 23.71H118.06L132.64 78.79L127.87 79.51L144.79 23.71H154.87L152.71 31L136.15 85H124.27ZM210.907 85H200.467V23.71H210.907V85ZM224.637 85V23.71H235.077V85H224.637ZM259.107 85L231.297 55.12V53.77L259.557 23.71H272.607L241.377 56.83L242.097 51.97L272.967 85H259.107ZM288.163 85H277.723V23.71H288.163V85Z" fill="#464655"/>
<path d="M90 34.62V73.37C90 77.36 89.09 81.14 87.45 84.51L73.13 70.19V34.62C73.13 29.79 69.21 25.87 64.38 25.87H28.81L14.49 11.55C17.86 9.92 21.64 9 25.63 9H64.38C78.51 9 90 20.49 90 34.62Z" fill="#0066CC"/>
<path d="M75.52 96.45C72.15 98.08 68.37 99 64.38 99H25.63C11.5 99 0 87.5 0 73.37V34.62C0 30.63 0.92 26.85 2.56 23.48L16.88 37.81V73.37C16.88 78.21 20.8 82.12 25.63 82.12H61.2L75.52 96.45Z" fill="#FF6611"/>
</svg>
