<svg xmlns="http://www.w3.org/2000/svg" xmlns:xlink="http://www.w3.org/1999/xlink" id="Layer_1" data-name="Layer 1" viewBox="0 0 248 246"><defs><linearGradient id="linear-gradient" x1="104.46" x2="155.58" y1="-303.21" y2="-322.7" gradientTransform="matrix(1 0 0 -1 0 -296)" gradientUnits="userSpaceOnUse"><stop offset="0" stop-color="#42e8e0"/><stop offset=".1" stop-color="#3ccace"/><stop offset=".34" stop-color="#2f87a5"/><stop offset=".56" stop-color="#255385"/><stop offset=".75" stop-color="#1e2d6e"/><stop offset=".91" stop-color="#1a1660"/><stop offset="1" stop-color="#180d5b"/></linearGradient><linearGradient xlink:href="#linear-gradient" id="linear-gradient-2" x1="105.2" x2="149.2" y1="-307.8" y2="-316.37"/><linearGradient id="linear-gradient-3" x1="189.53" x2="259.78" y1="-471.98" y2="-520.88" gradientTransform="matrix(.87 -.5 0 -1.15 -49.29 -387.08)" gradientUnits="userSpaceOnUse"><stop offset="0" stop-color="#2b237c"/><stop offset="1" stop-color="#180d5b"/></linearGradient><linearGradient xlink:href="#linear-gradient" id="linear-gradient-4" x1="79.56" x2="145.02" y1="-348.09" y2="-366.92"/><linearGradient xlink:href="#linear-gradient" id="linear-gradient-5" x1="29.86" x2="80.98" y1="-351.12" y2="-370.62"/><linearGradient xlink:href="#linear-gradient" id="linear-gradient-6" x1="30.64" x2="74.63" y1="-355.74" y2="-364.31"/><linearGradient xlink:href="#linear-gradient-3" id="linear-gradient-7" x1="103.48" x2="173.73" y1="-476.13" y2="-525.03"/><linearGradient xlink:href="#linear-gradient" id="linear-gradient-8" x1="5.01" x2="70.47" y1="-395.98" y2="-414.82"/><linearGradient xlink:href="#linear-gradient" id="linear-gradient-9" x1="178.96" x2="230.08" y1="-351.12" y2="-370.62"/><linearGradient xlink:href="#linear-gradient" id="linear-gradient-10" x1="179.77" x2="223.77" y1="-355.75" y2="-364.32"/><linearGradient xlink:href="#linear-gradient-3" id="linear-gradient-11" x1="275.45" x2="345.7" y1="-551.04" y2="-599.94"/><linearGradient xlink:href="#linear-gradient" id="linear-gradient-12" x1="154.14" x2="219.61" y1="-395.97" y2="-414.81"/><linearGradient xlink:href="#linear-gradient" id="linear-gradient-13" x1="104.47" x2="155.59" y1="-434.61" y2="-454.11"/><linearGradient xlink:href="#linear-gradient" id="linear-gradient-14" x1="105.2" x2="149.2" y1="-439.2" y2="-447.77"/><linearGradient xlink:href="#linear-gradient-3" id="linear-gradient-15" x1="202.24" x2="243.19" y1="-568.96" y2="-597.46"/><linearGradient xlink:href="#linear-gradient" id="linear-gradient-16" x1="89.72" x2="141.22" y1="-452.36" y2="-467.18"/><linearGradient xlink:href="#linear-gradient" id="linear-gradient-17" x1="104.47" x2="155.59" y1="-413.11" y2="-432.61"/><linearGradient xlink:href="#linear-gradient" id="linear-gradient-18" x1="105.2" x2="149.2" y1="-417.71" y2="-426.27"/><linearGradient xlink:href="#linear-gradient-3" id="linear-gradient-19" x1="207.06" x2="237.2" y1="-543.96" y2="-564.94"/><linearGradient xlink:href="#linear-gradient" id="linear-gradient-20" x1="93.47" x2="139.82" y1="-420.83" y2="-434.17"/><style>.cls-1{fill:#42e8e0}.cls-2{fill:#5cfff3}.cls-3{fill:#35dbcf}.cls-4{fill:#312a91}.cls-7{isolation:isolate}.cls-6{fill:#73fff5}.cls-7{fill:#0b0244;opacity:.3}</style></defs><path d="M206.3 235.4v-20.3l-17.6-10.2-17.6 10.2v20.3l17.6 10.1 17.6-10.1z" class="cls-1"/><path d="m188.7 225.2-17.6-10.1 17.6-10.2 17.6 10.2-17.6 10.1z" class="cls-2"/><path d="m206.3 235.4-17.6 10.1v-20.3l17.6-10.1v20.3z" class="cls-3"/><path d="m188.7 245.5-17.6-10.1v-20.3l17.6 10.1v20.3zM47 234.7v-11.8l-10.3-6-10.2 6v11.8l10.2 5.9 10.3-5.9z" class="cls-1"/><path d="m36.7 228.8-10.2-5.9 10.2-6 10.3 6-10.3 5.9z" class="cls-2"/><path d="m47 234.7-10.3 5.9v-11.8l10.3-5.9v11.8z" class="cls-3"/><path d="m36.7 240.6-10.2-5.9v-11.8l10.2 5.9v11.8zM247.1 201v-11.9l-10.3-5.9-10.2 5.9V201l10.2 5.9 10.3-5.9z" class="cls-1"/><path d="m236.8 195.1-10.2-6 10.2-5.9 10.3 5.9-10.3 6z" class="cls-2"/><path d="m247.1 201-10.3 5.9v-11.8l10.3-6V201z" class="cls-3"/><path d="m236.8 206.9-10.2-5.9v-11.9l10.2 6v11.8zM15.2 27v-8.2l-7.1-4.1L1 18.8V27l7.1 4.1 7.1-4.1z" class="cls-1"/><path d="M8.1 22.9 1 18.8l7.1-4.1 7.1 4.1-7.1 4.1z" class="cls-2"/><path d="m15.2 27-7.1 4.1v-8.2l7.1-4.1V27z" class="cls-3"/><path d="M8.1 31.1 1 27v-8.2l7.1 4.1v8.2z" class="cls-1"/><path d="M128.3 32.1 101 16.3 128.3.5l27.4 15.8-27.4 15.8z" class="cls-4"/><path d="M128.3 32.1 101 16.3 128.3.5l27.4 15.8-27.4 15.8z" style="fill:url(#linear-gradient);isolation:isolate;opacity:.5"/><path d="M128.3 143.3h-.1l-27.3-15.8c-.1-.1-.2-.2-.2-.3s.1-.2.2-.3l27.4-15.8h.3l27.4 15.8c.1.1.1.1.1.3s-.1.2-.1.3l-27.4 15.8c-.2-.1-.2 0-.3 0Zm-26.7-16.1 26.8 15.5 26.8-15.4-26.8-15.5Z" class="cls-6"/><path d="m128.3 137.3-17.6-10.1 17.6-10.2 17.7 10.2-17.7 10.1z" class="cls-7"/><path d="M102.1 16.3 128.9.8l-.6-.3L101 16.3l27.3 15.8.6-.3-26.8-15.5z" style="fill:url(#linear-gradient-2);opacity:.8;isolation:isolate"/><path d="M128.3 28 108 16.3l20.3-11.7 20.3 11.7L128.3 28z" class="cls-2"/><path d="m128.3 7.3 18 10.3 2.3-1.3-20.3-11.7L108 16.3l2.3 1.3 18-10.3z" class="cls-1"/><path d="M128.3 123.8 101 108V16.3l27.3 15.8v91.7z" class="cls-4"/><path d="m155.7 108-27.4 15.8V32.1l27.4-15.8V108z" style="fill:url(#linear-gradient-3)"/><path d="M128.3 32.1 101 16.3V108l27.3 15.8 27.4-15.8V16.3l-27.4 15.8z" style="fill:url(#linear-gradient-4);isolation:isolate;opacity:.5"/><path d="M103.6 20.9v25.5l22.1 12.8V33.6Zm19.9 34.5-17.9-10.3V24.5l17.8 10.3Z" class="cls-2"/><path d="M104.6 45.9V21.4l-1-.5v25.5l22.1 12.7v-1l-21.1-12.2z" class="cls-1"/><path d="M124.5 55V34.4L106.8 24v1.1l16.7 9.7v19.6l1 .6z" class="cls-1"/><path d="m106.8 24-1.1.5 2 1.2-.9-1.7zM123.5 55.5l1-.5-1-1.5v2z" class="cls-1"/><path d="M131 33.6v25.5l22.1-12.8V20.9Zm2.1 1.2 17.8-10.3v20.6l-17.8 10.4Z" class="cls-2"/><path d="M152 45.9V21.4l1.1-.5v25.5L131 59.1v-1l21-12.2z" class="cls-1"/><path d="M132 55V34.4L149.9 24v1.1l-16.8 9.7v19.6l-1.1.6z" class="cls-1"/><path d="M133.1 55.5 132 55l1.1-1.5v2z" class="cls-1"/><path d="M103.6 50.7v25.5L125.7 89V63.5Zm19.9 34.6L105.7 75V54.4l17.8 10.3Z" class="cls-2"/><path d="M104.6 75.8V51.3l-1-.6v25.5L125.7 89v-1.1l-21.1-12.1z" class="cls-1"/><path d="M124.5 84.8V64.2l-17.7-10.3V55l16.7 9.7v19.5l1 .6z" class="cls-1"/><path d="m106.8 53.9-1.1.5 2 1.1-.9-1.6zM123.5 85.3l1-.5-1-1.4v1.9z" class="cls-1"/><path d="M131 63.5V89l22.1-12.8V50.7Zm2.1 1.2L151 54.4V75l-17.9 10.3Z" class="cls-2"/><path d="M152 75.8V51.3l1.1-.6v25.5L131 89v-1.1l21-12.1z" class="cls-1"/><path d="M132 84.8V64.2l17.9-10.3V55l-16.8 9.7v19.5l-1.1.6z" class="cls-1"/><path d="m133.1 85.3-1.1-.5 1.1-1.4v1.9z" class="cls-1"/><path d="M103.6 80.6v25.5l22.1 12.8V93.3Zm19.9 34.6-17.8-10.3V84.3l17.8 10.3Z" class="cls-2"/><path d="M104.6 105.6V81.2l-1-.6v25.5l22.1 12.8v-1.1l-21.1-12.2z" class="cls-1"/><path d="M124.5 114.7V94.1l-17.7-10.3v1.1l16.7 9.7v19.5l1 .6z" class="cls-1"/><path d="m106.8 83.8-1.1.5 2 1.1-.9-1.6zM123.5 115.2l1-.5-1-1.4v1.9z" class="cls-1"/><path d="M131 93.3v25.5l22.1-12.8V80.6Zm2.1 1.3L151 84.3v20.6l-17.9 10.3Z" class="cls-2"/><path d="M152 105.6V81.2l1.1-.6v25.5L131 118.9v-1.1l21-12.2z" class="cls-1"/><path d="M132 114.7V94.1l17.9-10.3v1.1l-16.8 9.7v19.5l-1.1.6z" class="cls-1"/><path d="m133.1 115.2-1.1-.5 1.1-1.4v1.9zM149.9 24l1 .5-2 1.2 1-1.7z" class="cls-1"/><path d="M53.8 80 26.4 64.2l27.4-15.7 27.3 15.7L53.8 80z" class="cls-4"/><path d="M53.8 80 26.4 64.2l27.4-15.7 27.3 15.7L53.8 80z" style="fill:url(#linear-gradient-5);isolation:isolate;opacity:.5"/><path d="M53.8 191.2h-.2l-27.4-15.8c-.1-.1-.2-.2-.2-.3s.1-.2.2-.3L53.6 159h.3l27.4 15.8c.1.1.2.2.2.3s-.1.2-.2.3L54 191.2ZM27 175.1l26.8 15.4 26.8-15.4-26.8-15.5Z" class="cls-6"/><path d="m53.8 185.3-17.7-10.2 17.7-10.2 17.5 10.2-17.5 10.2z" class="cls-7"/><path d="m27.5 64.2 26.8-15.4-.5-.3-27.4 15.7L53.8 80l.5-.3-26.8-15.5z" style="fill:url(#linear-gradient-6);opacity:.8;isolation:isolate"/><path d="M53.8 75.9 33.5 64.2l20.3-11.7L74 64.2 53.8 75.9z" class="cls-2"/><path d="m53.8 55.2 17.9 10.4 2.3-1.4-20.2-11.7-20.3 11.7 2.3 1.4 18-10.4z" class="cls-1"/><path d="m53.8 171.7-27.4-15.8V64.2L53.8 80v91.7z" class="cls-4"/><path d="m81.1 155.9-27.3 15.8V80l27.3-15.8v91.7z" style="fill:url(#linear-gradient-7)"/><path d="M53.8 80 26.4 64.2v91.7l27.4 15.8 27.3-15.8V64.2L53.8 80z" style="fill:url(#linear-gradient-8);isolation:isolate;opacity:.5"/><path d="M29 68.8v25.5l22.1 12.8V81.6Zm20 34.6L31.2 93.1V72.5L49 82.8Z" class="cls-2"/><path d="M30.1 93.8V69.4l-1.1-.6v25.5l22.1 12.8V106l-21-12.2z" class="cls-1"/><path d="M50 102.9V82.3L32.2 72v1.1L49 82.8v19.5l1 .6z" class="cls-1"/><path d="m32.2 72-1 .5 2 1.1-1-1.6zM49 103.4l1-.5-1-1.4v1.9z" class="cls-1"/><path d="M56.3 81.6v25.5l22.1-12.8V68.8Zm2.2 1.2 17.9-10.3v20.6l-17.8 10.3Z" class="cls-2"/><path d="M77.5 93.8V69.4l1-.6v25.5l-22.2 12.8V106l21.2-12.2z" class="cls-1"/><path d="M57.5 102.9V82.3L75.3 72v1.1l-16.8 9.7v19.5l-1 .6z" class="cls-1"/><path d="m58.5 103.4-1-.5 1-1.4v1.9z" class="cls-1"/><path d="M29 98.7v25.5L51.1 137v-25.5Zm20 34.6L31.2 123v-20.6L49 112.7Z" class="cls-2"/><path d="M30.1 123.7V99.3l-1.1-.6v25.5l22.1 12.7v-1l-21-12.2zM50 132.8v-20.6l-17.8-10.3v1l16.8 9.8v19.5l1 .6z" class="cls-1"/><path d="m32.2 101.9-1 .4 2 1.2-1-1.6zM49 133.3l1-.5-1-1.4v1.9z" class="cls-1"/><path d="M56.3 111.4v25.5l22.1-12.8V98.7Zm2.2 1.3 17.8-10.3V123l-17.8 10.3Z" class="cls-2"/><path d="M77.5 123.7V99.3l1-.6v25.5l-22.2 12.7v-1l21.2-12.2z" class="cls-1"/><path d="M57.5 132.8v-20.6l17.8-10.3v1l-16.8 9.8v19.5l-1 .6z" class="cls-1"/><path d="m58.5 133.3-1-.5 1-1.4v1.9z" class="cls-1"/><path d="M29 128.5V154l22.1 12.8v-25.5Zm20 34.6-17.8-10.3v-20.6L49 142.5Z" class="cls-2"/><path d="M30.1 153.6v-24.5l-1.1-.6v25.6l22.1 12.7v-1.1l-21-12.1z" class="cls-1"/><path d="M50 162.7V142l-17.8-10.3v1.1l16.8 9.7v19.6l1 .6z" class="cls-1"/><path d="m32.2 131.7-1 .5 2 1.2-1-1.7zM49 163.1l1-.4-1-1.5v1.9z" class="cls-1"/><path d="M56.3 141.3v25.5L78.4 154v-25.5Zm2.2 1.2 17.8-10.3v20.6l-17.8 10.3Z" class="cls-2"/><path d="M77.5 153.6v-24.5l1-.6v25.6l-22.2 12.7v-1.1l21.2-12.1z" class="cls-1"/><path d="M57.5 162.7V142l17.8-10.3v1.1l-16.8 9.7v19.6l-1 .6z" class="cls-1"/><path d="m58.5 163.1-1-.4 1-1.5v1.9zM75.3 72l1 .5-2 1.1 1-1.6z" class="cls-1"/><path d="m202.9 80-27.4-15.8 27.4-15.7 27.4 15.7L202.9 80z" class="cls-4"/><path d="m202.9 80-27.4-15.8 27.4-15.7 27.4 15.7L202.9 80z" style="fill:url(#linear-gradient-9);isolation:isolate;opacity:.5"/><path d="M202.9 191.2h-.1l-27.4-15.8c-.1-.1-.2-.2-.1-.3s.1-.2.1-.3l27.4-15.8h.3l27.4 15.8a.37.37 0 0 1 .1.3c0 .1-.1.2-.1.3l-27.4 15.8Zm-26.8-16.1 26.8 15.4 26.8-15.4-26.8-15.4Z" class="cls-6"/><path d="m202.9 185.3-17.6-10.2 17.6-10.2 17.6 10.2-17.6 10.2z" class="cls-7"/><path d="m176.6 64.2 26.8-15.4-.5-.3-27.4 15.7L202.9 80l.5-.3-26.8-15.5z" style="fill:url(#linear-gradient-10);opacity:.8;isolation:isolate"/><path d="m202.9 75.9-20.3-11.7 20.3-11.7 20.3 11.7-20.3 11.7z" class="cls-2"/><path d="m202.9 55.2 17.9 10.4 2.4-1.4-20.3-11.7-20.3 11.7 2.3 1.4 18-10.4z" class="cls-1"/><path d="m202.9 171.7-27.4-15.8V64.2L202.9 80v91.7z" class="cls-4"/><path d="m230.3 155.9-27.4 15.8V80l27.4-15.8v91.7z" style="fill:url(#linear-gradient-11)"/><path d="m202.9 80-27.4-15.8v91.7l27.4 15.8 27.4-15.8V64.2L202.9 80z" style="fill:url(#linear-gradient-12);isolation:isolate;opacity:.5"/><path d="M178.2 68.8v25.5l22.1 12.8V81.6Zm20 34.6-17.9-10.3V72.5l17.9 10.3Z" class="cls-2"/><path d="M179.2 93.8V69.4l-1-.6v25.5l22.1 12.8V106l-21.1-12.2z" class="cls-1"/><path d="M199.2 102.9V82.3L181.3 72v1.1l16.8 9.7v19.5l1.1.6z" class="cls-1"/><path d="m181.3 72-1 .5 2 1.1-1-1.6zM198.1 103.4l1.1-.5-1.1-1.4v1.9z" class="cls-1"/><path d="M205.5 81.6v25.5l22.1-12.8V68.8Zm2.1 1.2 17.9-10.3v20.6l-17.9 10.3Z" class="cls-2"/><path d="M226.6 93.8V69.4l1-.6v25.5l-22.1 12.8V106l21.1-12.2z" class="cls-1"/><path d="M206.6 102.9V82.3L224.5 72v1.1l-16.9 9.7v19.5l-1 .6z" class="cls-1"/><path d="m207.6 103.4-1-.5 1-1.4v1.9z" class="cls-1"/><path d="M178.2 98.7v25.5l22.1 12.8v-25.5Zm20 34.6L180.3 123v-20.6l17.9 10.3Z" class="cls-2"/><path d="M179.2 123.7V99.3l-1-.6v25.5l22.1 12.7v-1l-21.1-12.2z" class="cls-1"/><path d="M199.2 132.8v-20.6l-17.9-10.3v1l16.8 9.8v19.5l1.1.6z" class="cls-1"/><path d="m181.3 101.9-1 .4 2 1.2-1-1.6zM198.1 133.3l1.1-.5-1.1-1.4v1.9z" class="cls-1"/><path d="M205.5 111.4v25.5l22.1-12.8V98.7Zm2.1 1.3 17.9-10.3V123l-17.9 10.3Z" class="cls-2"/><path d="M226.6 123.7V99.3l1-.6v25.5l-22.1 12.7v-1l21.1-12.2zM206.6 132.8v-20.6l17.9-10.3v1l-16.9 9.8v19.5l-1 .6z" class="cls-1"/><path d="m207.6 133.3-1-.5 1-1.4v1.9z" class="cls-1"/><path d="M178.2 128.5V154l22.1 12.8v-25.5Zm20 34.6-17.9-10.3v-20.6l17.8 10.3Z" class="cls-2"/><path d="M179.2 153.6v-24.5l-1-.6v25.6l22.1 12.7v-1.1l-21.1-12.1z" class="cls-1"/><path d="M199.2 162.7V142l-17.9-10.3v1.1l16.8 9.7v19.6l1.1.6z" class="cls-1"/><path d="m181.3 131.7-1 .5 2 1.2-1-1.7zM198.1 163.1l1.1-.4-1.1-1.5v1.9z" class="cls-1"/><path d="M205.5 141.3v25.5l22.1-12.8v-25.5Zm2.1 1.2 17.9-10.3v20.6l-17.9 10.3Z" class="cls-2"/><path d="M226.6 153.6v-24.5l1-.6v25.6l-22.1 12.7v-1.1l21.1-12.1z" class="cls-1"/><path d="M206.6 162.7V142l17.9-10.3v1.1l-16.9 9.7v19.6l-1 .6z" class="cls-1"/><path d="m207.6 163.1-1-.4 1-1.5v1.9zM224.5 72l1 .5-2 1.1 1-1.6z" class="cls-1"/><path d="M128.3 163.5 101 147.7l27.3-15.8 27.4 15.8-27.4 15.8z" class="cls-4"/><path d="M128.3 163.5 101 147.7l27.3-15.8 27.4 15.8-27.4 15.8z" style="fill:url(#linear-gradient-13);isolation:isolate;opacity:.5"/><path d="M128.3 215.1h-.1l-27.3-15.8c-.1-.1-.2-.2-.2-.3s.1-.2.2-.3l27.4-15.8h.3l27.4 15.8c.1.1.2.2.1.3s-.1.2-.1.3l-27.4 15.8ZM101.6 199l26.8 15.4 26.8-15.4-26.9-15.5Z" class="cls-6"/><path d="M128.3 209.1 110.7 199l17.6-10.2L146 199l-17.7 10.1z" class="cls-7"/><path d="m102.1 147.7 26.8-15.5-.6-.3-27.3 15.8 27.3 15.8.6-.3-26.8-15.5z" style="fill:url(#linear-gradient-14);opacity:.8;isolation:isolate"/><path d="M128.3 159.4 108 147.7l20.3-11.7 20.3 11.7-20.3 11.7z" class="cls-2"/><path d="m128.3 138.7 18 10.3 2.3-1.3-20.3-11.7-20.3 11.7 2.3 1.3 18-10.3z" class="cls-1"/><path d="M128.3 195.1 101 179.3v-31.6l27.3 15.8v31.6z" class="cls-4"/><path d="m155.7 179.3-27.4 15.8v-31.6l27.4-15.8v31.6z" style="fill:url(#linear-gradient-15)"/><path d="M128.3 163.5 101 147.7v31.6l27.3 15.8 27.4-15.8v-31.6l-27.4 15.8z" style="fill:url(#linear-gradient-16);isolation:isolate;opacity:.5"/><path d="M103.6 152.2v25.5l22.1 12.7v-25.5Zm19.9 34.6-17.9-10.3v-20.6l17.8 10.3Z" class="cls-2"/><path d="M104.6 177.3v-24.5l-1-.6v25.6l22.1 12.7v-1l-21.1-12.2z" class="cls-1"/><path d="M124.5 186.4v-20.6l-17.7-10.4v1.1l16.7 9.7v19.6l1 .6z" class="cls-1"/><path d="m106.8 155.4-1.1.5 2 1.2-.9-1.7zM123.5 186.8l1-.4-1-1.5v1.9z" class="cls-1"/><path d="M131 165v25.5l22.1-12.8v-25.5Zm2.1 1.2 17.9-10.3v20.6l-17.9 10.3Z" class="cls-2"/><path d="M152 177.3v-24.5l1.1-.6v25.6L131 190.5v-1l21-12.2z" class="cls-1"/><path d="M132 186.4v-20.6l17.9-10.4v1.1l-16.8 9.7v19.6l-1.1.6z" class="cls-1"/><path d="m133.1 186.8-1.1-.4 1.1-1.5v1.9zM149.9 155.4l1 .5-2 1.2 1-1.7z" class="cls-1"/><path d="M128.3 142 101 126.2l27.3-15.8 27.4 15.8-27.4 15.8z" class="cls-4"/><path d="M128.3 142 101 126.2l27.3-15.8 27.4 15.8-27.4 15.8z" style="fill:url(#linear-gradient-17);isolation:isolate;opacity:.5"/><path d="m102.1 126.2 26.8-15.5-.6-.3-27.3 15.8 27.3 15.8.6-.3-26.8-15.5z" style="fill:url(#linear-gradient-18);opacity:.8;isolation:isolate"/><path d="M128.3 137.9 108 126.2l20.3-11.7 20.3 11.7-20.3 11.7z" class="cls-2"/><path d="m128.3 117.2 18 10.3 2.3-1.3-20.3-11.7-20.3 11.7 2.3 1.3 18-10.3z" class="cls-1"/><path d="M128.3 151.4 101 135.6v-9.4l27.3 15.8v9.4z" class="cls-4"/><path d="m155.7 135.6-27.4 15.8V142l27.4-15.8v9.4z" style="fill:url(#linear-gradient-19)"/><path d="M128.3 142 101 126.2v9.4l27.3 15.8 27.4-15.8v-9.4L128.3 142z" style="fill:url(#linear-gradient-20);isolation:isolate;opacity:.5"/><path d="M139.2 140.7a3.36 3.36 0 0 1-1.5 2.6c-.8.5-1.5.1-1.5-.9a3.36 3.36 0 0 1 1.5-2.6c.8-.4 1.5-.1 1.5.9ZM144 137.9a3.36 3.36 0 0 1-1.5 2.6c-.8.5-1.5.1-1.5-.9a3.36 3.36 0 0 1 1.5-2.6 1 1 0 0 1 1.5.9ZM148.7 135.2a3.36 3.36 0 0 1-1.5 2.6c-.8.5-1.5.1-1.5-.9a3.36 3.36 0 0 1 1.5-2.6c.9-.5 1.5-.1 1.5.9Z" class="cls-2"/><path d="M138.5 139.6a4.33 4.33 0 0 1 .1.5 3.36 3.36 0 0 1-1.5 2.6 1.08 1.08 0 0 1-.8.2.86.86 0 0 0 1.4.4 3.36 3.36 0 0 0 1.5-2.6 1 1 0 0 0-.7-1.1ZM143.3 136.9c0 .1.1.3.1.4a3.36 3.36 0 0 1-1.5 2.6 1.08 1.08 0 0 1-.8.2.86.86 0 0 0 1.4.4 3.36 3.36 0 0 0 1.5-2.6.92.92 0 0 0-.7-1ZM148.1 134.1c0 .1.1.3.1.4a3.36 3.36 0 0 1-1.5 2.6 1.08 1.08 0 0 1-.8.2.86.86 0 0 0 1.4.4 3.36 3.36 0 0 0 1.5-2.6c-.1-.5-.3-.9-.7-1Z" class="cls-1"/><path d="M117.5 140.7a3.36 3.36 0 0 0 1.5 2.6c.8.5 1.5.1 1.5-.9a3.36 3.36 0 0 0-1.5-2.6 1 1 0 0 0-1.5.9ZM112.8 137.9a3.36 3.36 0 0 0 1.5 2.6c.8.5 1.5.1 1.5-.9a3.36 3.36 0 0 0-1.5-2.6 1 1 0 0 0-1.5.9ZM108 135.2a3.36 3.36 0 0 0 1.5 2.6c.8.5 1.5.1 1.5-.9a3.36 3.36 0 0 0-1.5-2.6c-.8-.5-1.5-.1-1.5.9Z" class="cls-2"/><path d="M118.3 139.6a4.33 4.33 0 0 0-.1.5 3.36 3.36 0 0 0 1.5 2.6 1.08 1.08 0 0 0 .8.2.86.86 0 0 1-1.4.4 3.36 3.36 0 0 1-1.5-2.6.88.88 0 0 1 .7-1.1ZM113.5 136.9c0 .1-.1.3-.1.4a3.36 3.36 0 0 0 1.5 2.6 1.08 1.08 0 0 0 .8.2.86.86 0 0 1-1.4.4 3.36 3.36 0 0 1-1.5-2.6c0-.6.2-.9.7-1ZM108.7 134.1c0 .1-.1.3-.1.4a3.36 3.36 0 0 0 1.5 2.6 1.08 1.08 0 0 0 .8.2.86.86 0 0 1-1.4.4 3.36 3.36 0 0 1-1.5-2.6 1 1 0 0 1 .7-1Z" class="cls-1"/></svg>