<?xml version="1.0" encoding="utf-8"?>
<!-- Generator: Adobe Illustrator 23.0.1, SVG Export Plug-In . SVG Version: 6.00 Build 0)  -->
<svg version="1.1" id="Layer_1" xmlns="http://www.w3.org/2000/svg" xmlns:xlink="http://www.w3.org/1999/xlink" x="0px" y="0px"
	 viewBox="0 0 262.9 245" style="enable-background:new 0 0 262.9 245;" xml:space="preserve">
<style type="text/css">
	.st0{fill:#42E8E0;}
	.st1{fill:#5CFFF3;}
	.st2{fill:#35DBCF;}
	.st3{fill:#312A91;}
	.st4{opacity:0.5;fill:url(#SVGID_1_);enable-background:new    ;}
	.st5{fill:#73FFF5;}
	.st6{opacity:0.3;fill:#0B0244;enable-background:new    ;}
	.st7{opacity:0.8;fill:url(#SVGID_2_);enable-background:new    ;}
	.st8{fill:url(#SVGID_3_);}
	.st9{opacity:0.5;fill:url(#SVGID_4_);enable-background:new    ;}
	.st10{opacity:0.5;fill:url(#SVGID_5_);enable-background:new    ;}
	.st11{opacity:0.8;fill:url(#SVGID_6_);enable-background:new    ;}
	.st12{fill:url(#SVGID_7_);}
	.st13{opacity:0.5;fill:url(#SVGID_8_);enable-background:new    ;}
	.st14{opacity:0.5;fill:url(#SVGID_9_);enable-background:new    ;}
	.st15{opacity:0.8;fill:url(#SVGID_10_);enable-background:new    ;}
	.st16{fill:url(#SVGID_11_);}
	.st17{opacity:0.5;fill:url(#SVGID_12_);enable-background:new    ;}
	.st18{opacity:0.5;fill:url(#SVGID_13_);enable-background:new    ;}
	.st19{opacity:0.8;fill:url(#SVGID_14_);enable-background:new    ;}
	.st20{fill:url(#SVGID_15_);}
	.st21{opacity:0.5;fill:url(#SVGID_16_);enable-background:new    ;}
	.st22{opacity:0.5;fill:url(#SVGID_17_);enable-background:new    ;}
	.st23{opacity:0.8;fill:url(#SVGID_18_);enable-background:new    ;}
	.st24{fill:url(#SVGID_19_);}
	.st25{opacity:0.5;fill:url(#SVGID_20_);enable-background:new    ;}
</style>
<title>cloud</title>
<polygon class="st0" points="222.1,234.9 222.1,214.6 204.5,204.4 186.9,214.6 186.9,234.9 204.5,245 "/>
<polygon class="st1" points="204.5,224.7 186.9,214.6 204.5,204.4 222.1,214.6 "/>
<polygon class="st2" points="222.1,234.9 204.5,245 204.5,224.7 222.1,214.6 "/>
<polygon class="st0" points="204.5,245 186.9,234.9 186.9,214.6 204.5,224.7 "/>
<polygon class="st0" points="62.8,234.2 62.8,222.4 52.5,216.4 42.3,222.4 42.3,234.2 52.5,240.1 "/>
<polygon class="st1" points="52.5,228.3 42.3,222.4 52.5,216.4 62.8,222.4 "/>
<polygon class="st2" points="62.8,234.2 52.5,240.1 52.5,228.3 62.8,222.4 "/>
<polygon class="st0" points="52.5,240.1 42.3,234.2 42.3,222.4 52.5,228.3 "/>
<polygon class="st0" points="262.9,200.5 262.9,188.6 252.6,182.7 242.4,188.6 242.4,200.5 252.6,206.4 "/>
<polygon class="st1" points="252.6,194.6 242.4,188.6 252.6,182.7 262.9,188.6 "/>
<polygon class="st2" points="262.9,200.5 252.6,206.4 252.6,194.6 262.9,188.6 "/>
<polygon class="st0" points="252.6,206.4 242.4,200.5 242.4,188.6 252.6,194.6 "/>
<g>
	<polygon class="st0" points="31,26.5 31,18.3 23.9,14.2 16.8,18.3 16.8,26.5 23.9,30.6 	"/>
	<polygon class="st1" points="23.9,22.4 16.8,18.3 23.9,14.2 31,18.3 	"/>
	<polygon class="st2" points="31,26.5 23.9,30.6 23.9,22.4 31,18.3 	"/>
	<polygon class="st0" points="23.9,30.6 16.8,26.5 16.8,18.3 23.9,22.4 	"/>
</g>
<polygon class="st3" points="144.1,31.6 116.8,15.8 144.1,0 171.5,15.8 "/>
<linearGradient id="SVGID_1_" gradientUnits="userSpaceOnUse" x1="120.2394" y1="241.3097" x2="171.3594" y2="221.8197" gradientTransform="matrix(1 0 0 -1 0 248)">
	<stop  offset="0" style="stop-color:#42E8E0"/>
	<stop  offset="0.1" style="stop-color:#3CCACE"/>
	<stop  offset="0.34" style="stop-color:#2F87A5"/>
	<stop  offset="0.56" style="stop-color:#255385"/>
	<stop  offset="0.75" style="stop-color:#1E2D6E"/>
	<stop  offset="0.91" style="stop-color:#1A1660"/>
	<stop  offset="1" style="stop-color:#180D5B"/>
</linearGradient>
<polygon class="st4" points="144.1,31.6 116.8,15.8 144.1,0 171.5,15.8 "/>
<path class="st5" d="M144.1,142.8c0,0-0.1,0-0.1,0l-27.3-15.8c-0.1-0.1-0.2-0.2-0.2-0.3c0-0.1,0.1-0.2,0.2-0.3l27.4-15.8
	c0.1,0,0.2,0,0.3,0l27.4,15.8c0.1,0.1,0.1,0.1,0.1,0.3c0,0.1-0.1,0.2-0.1,0.3l-27.4,15.8C144.2,142.7,144.2,142.8,144.1,142.8z
	 M117.4,126.7l26.8,15.5l26.8-15.4l-26.8-15.5L117.4,126.7z"/>
<polygon class="st6" points="144.1,136.8 126.5,126.7 144.1,116.5 161.8,126.7 "/>
<linearGradient id="SVGID_2_" gradientUnits="userSpaceOnUse" x1="121.0497" y1="236.6985" x2="165.0497" y2="228.1285" gradientTransform="matrix(1 0 0 -1 0 248)">
	<stop  offset="0" style="stop-color:#42E8E0"/>
	<stop  offset="0.1" style="stop-color:#3CCACE"/>
	<stop  offset="0.34" style="stop-color:#2F87A5"/>
	<stop  offset="0.56" style="stop-color:#255385"/>
	<stop  offset="0.75" style="stop-color:#1E2D6E"/>
	<stop  offset="0.91" style="stop-color:#1A1660"/>
	<stop  offset="1" style="stop-color:#180D5B"/>
</linearGradient>
<polygon class="st7" points="117.9,15.8 144.7,0.3 144.1,0 116.8,15.8 144.1,31.6 144.7,31.3 "/>
<polygon class="st1" points="144.1,27.5 123.8,15.8 144.1,4.1 164.4,15.8 "/>
<polygon class="st0" points="144.1,6.8 162.1,17.1 164.4,15.8 144.1,4.1 123.8,15.8 126.2,17.1 "/>
<polygon class="st3" points="144.1,123.3 116.8,107.5 116.8,15.8 144.1,31.6 "/>
<linearGradient id="SVGID_3_" gradientUnits="userSpaceOnUse" x1="152.3274" y1="178.8429" x2="222.5774" y2="129.9429" gradientTransform="matrix(0.87 -0.5 0 -1.15 -1.08 342.27)">
	<stop  offset="0" style="stop-color:#2B237C"/>
	<stop  offset="1" style="stop-color:#180D5B"/>
</linearGradient>
<polygon class="st8" points="171.5,107.5 144.1,123.3 144.1,31.6 171.5,15.8 "/>
<linearGradient id="SVGID_4_" gradientUnits="userSpaceOnUse" x1="95.4092" y1="196.4071" x2="160.8692" y2="177.5771" gradientTransform="matrix(1 0 0 -1 0 248)">
	<stop  offset="0" style="stop-color:#42E8E0"/>
	<stop  offset="0.1" style="stop-color:#3CCACE"/>
	<stop  offset="0.34" style="stop-color:#2F87A5"/>
	<stop  offset="0.56" style="stop-color:#255385"/>
	<stop  offset="0.75" style="stop-color:#1E2D6E"/>
	<stop  offset="0.91" style="stop-color:#1A1660"/>
	<stop  offset="1" style="stop-color:#180D5B"/>
</linearGradient>
<polygon class="st9" points="144.1,31.6 116.8,15.8 116.8,107.5 144.1,123.3 171.5,107.5 171.5,15.8 "/>
<path class="st1" d="M119.4,20.4v25.5l22.1,12.8V33.1L119.4,20.4z M139.4,54.9l-17.9-10.3V24l17.8,10.3L139.4,54.9z"/>
<polygon class="st0" points="120.4,45.4 120.4,20.9 119.4,20.4 119.4,45.9 141.5,58.6 141.5,57.6 "/>
<polygon class="st0" points="140.4,54.5 140.4,33.9 122.6,23.5 122.6,24.6 139.4,34.3 139.4,53.9 "/>
<polygon class="st0" points="122.6,23.5 121.5,24 123.5,25.2 "/>
<polygon class="st0" points="139.4,55 140.4,54.5 139.4,53 "/>
<path class="st1" d="M146.8,33.1v25.5l22.1-12.8V20.4L146.8,33.1z M148.9,34.3L166.7,24v20.6L148.9,55V34.3z"/>
<polygon class="st0" points="167.8,45.4 167.8,20.9 168.9,20.4 168.9,45.9 146.8,58.6 146.8,57.6 "/>
<polygon class="st0" points="147.8,54.5 147.8,33.9 165.7,23.5 165.7,24.6 148.9,34.3 148.9,53.9 "/>
<polygon class="st0" points="148.9,55 147.8,54.5 148.9,53 "/>
<path class="st1" d="M119.4,50.2v25.5l22.1,12.8V63L119.4,50.2z M139.4,84.8l-17.8-10.3V53.9l17.8,10.3L139.4,84.8z"/>
<polygon class="st0" points="120.4,75.3 120.4,50.8 119.4,50.2 119.4,75.7 141.5,88.5 141.5,87.4 "/>
<polygon class="st0" points="140.4,84.3 140.4,63.7 122.6,53.4 122.6,54.5 139.4,64.2 139.4,83.7 "/>
<polygon class="st0" points="122.6,53.4 121.5,53.9 123.5,55 "/>
<polygon class="st0" points="139.4,84.8 140.4,84.3 139.4,82.9 "/>
<path class="st1" d="M146.8,63v25.5l22.1-12.8V50.2L146.8,63z M148.9,64.2l17.9-10.3v20.6l-17.9,10.3V64.2z"/>
<polygon class="st0" points="167.8,75.3 167.8,50.8 168.9,50.2 168.9,75.7 146.8,88.5 146.8,87.4 "/>
<polygon class="st0" points="147.8,84.3 147.8,63.7 165.7,53.4 165.7,54.5 148.9,64.2 148.9,83.7 "/>
<polygon class="st0" points="148.9,84.8 147.8,84.3 148.9,82.9 "/>
<path class="st1" d="M119.4,80.1v25.5l22.1,12.8V92.8L119.4,80.1z M139.4,114.7l-17.8-10.3V83.8l17.8,10.3V114.7z"/>
<polygon class="st0" points="120.4,105.1 120.4,80.7 119.4,80.1 119.4,105.6 141.5,118.4 141.5,117.3 "/>
<polygon class="st0" points="140.4,114.2 140.4,93.6 122.6,83.3 122.6,84.4 139.4,94.1 139.4,113.6 "/>
<polygon class="st0" points="122.6,83.3 121.5,83.8 123.5,84.9 "/>
<polygon class="st0" points="139.4,114.7 140.4,114.2 139.4,112.8 "/>
<path class="st1" d="M146.8,92.8v25.5l22.1-12.8V80.1L146.8,92.8z M148.9,94.1l17.9-10.3v20.6l-17.9,10.3V94.1z"/>
<polygon class="st0" points="167.8,105.1 167.8,80.7 168.9,80.1 168.9,105.6 146.8,118.4 146.8,117.3 "/>
<polygon class="st0" points="147.8,114.2 147.8,93.6 165.7,83.3 165.7,84.4 148.9,94.1 148.9,113.6 "/>
<polygon class="st0" points="148.9,114.7 147.8,114.2 148.9,112.8 "/>
<polygon class="st0" points="165.7,23.5 166.7,24 164.7,25.2 "/>
<polygon class="st3" points="69.6,79.5 42.2,63.7 69.6,48 96.9,63.7 "/>
<linearGradient id="SVGID_5_" gradientUnits="userSpaceOnUse" x1="45.6737" y1="193.3665" x2="96.7937" y2="173.8665" gradientTransform="matrix(1 0 0 -1 0 248)">
	<stop  offset="0" style="stop-color:#42E8E0"/>
	<stop  offset="0.1" style="stop-color:#3CCACE"/>
	<stop  offset="0.34" style="stop-color:#2F87A5"/>
	<stop  offset="0.56" style="stop-color:#255385"/>
	<stop  offset="0.75" style="stop-color:#1E2D6E"/>
	<stop  offset="0.91" style="stop-color:#1A1660"/>
	<stop  offset="1" style="stop-color:#180D5B"/>
</linearGradient>
<polygon class="st10" points="69.6,79.5 42.2,63.7 69.6,48 96.9,63.7 "/>
<path class="st5" d="M69.6,190.7c0,0-0.1,0-0.2,0L42,174.9c-0.1-0.1-0.2-0.2-0.2-0.3c0-0.1,0.1-0.2,0.2-0.3l27.4-15.8
	c0.1,0,0.2,0,0.3,0l27.4,15.8c0.1,0.1,0.2,0.2,0.2,0.3c0,0.1-0.1,0.2-0.2,0.3l-27.3,15.8C69.7,190.7,69.6,190.7,69.6,190.7z
	 M42.8,174.6l26.8,15.4l26.8-15.4l-26.8-15.5L42.8,174.6z"/>
<polygon class="st6" points="69.6,184.8 51.9,174.6 69.6,164.4 87.2,174.6 "/>
<linearGradient id="SVGID_6_" gradientUnits="userSpaceOnUse" x1="46.4899" y1="188.7495" x2="90.4799" y2="180.1794" gradientTransform="matrix(1 0 0 -1 0 248)">
	<stop  offset="0" style="stop-color:#42E8E0"/>
	<stop  offset="0.1" style="stop-color:#3CCACE"/>
	<stop  offset="0.34" style="stop-color:#2F87A5"/>
	<stop  offset="0.56" style="stop-color:#255385"/>
	<stop  offset="0.75" style="stop-color:#1E2D6E"/>
	<stop  offset="0.91" style="stop-color:#1A1660"/>
	<stop  offset="1" style="stop-color:#180D5B"/>
</linearGradient>
<polygon class="st11" points="43.3,63.7 70.1,48.3 69.6,48 42.2,63.7 69.6,79.5 70.1,79.2 "/>
<polygon class="st1" points="69.6,75.4 49.3,63.7 69.6,52 89.8,63.7 "/>
<polygon class="st0" points="69.6,54.7 87.5,65.1 89.8,63.7 69.6,52 49.3,63.7 51.6,65.1 "/>
<polygon class="st3" points="69.6,171.2 42.2,155.4 42.2,63.7 69.6,79.5 "/>
<linearGradient id="SVGID_7_" gradientUnits="userSpaceOnUse" x1="66.2611" y1="174.6657" x2="136.5111" y2="125.7657" gradientTransform="matrix(0.87 -0.5 0 -1.15 -1.08 342.27)">
	<stop  offset="0" style="stop-color:#2B237C"/>
	<stop  offset="1" style="stop-color:#180D5B"/>
</linearGradient>
<polygon class="st12" points="96.9,155.4 69.6,171.2 69.6,79.5 96.9,63.7 "/>
<linearGradient id="SVGID_8_" gradientUnits="userSpaceOnUse" x1="20.8408" y1="148.4726" x2="86.3008" y2="129.6326" gradientTransform="matrix(1 0 0 -1 0 248)">
	<stop  offset="0" style="stop-color:#42E8E0"/>
	<stop  offset="0.1" style="stop-color:#3CCACE"/>
	<stop  offset="0.34" style="stop-color:#2F87A5"/>
	<stop  offset="0.56" style="stop-color:#255385"/>
	<stop  offset="0.75" style="stop-color:#1E2D6E"/>
	<stop  offset="0.91" style="stop-color:#1A1660"/>
	<stop  offset="1" style="stop-color:#180D5B"/>
</linearGradient>
<polygon class="st13" points="69.6,79.5 42.2,63.7 42.2,155.4 69.6,171.2 96.9,155.4 96.9,63.7 "/>
<path class="st1" d="M44.8,68.3v25.5l22.1,12.8V81.1L44.8,68.3z M64.8,102.9L47,92.6V72l17.8,10.3L64.8,102.9z"/>
<polygon class="st0" points="45.9,93.3 45.9,68.9 44.8,68.3 44.8,93.8 66.9,106.6 66.9,105.5 "/>
<polygon class="st0" points="65.8,102.4 65.8,81.8 48,71.5 48,72.6 64.8,82.3 64.8,101.8 "/>
<polygon class="st0" points="48,71.5 47,72 49,73.1 "/>
<polygon class="st0" points="64.8,102.9 65.8,102.4 64.8,101 "/>
<path class="st1" d="M72.2,81.1v25.5l22.1-12.8V68.3L72.2,81.1z M74.3,82.3L92.2,72v20.6l-17.8,10.3L74.3,82.3z"/>
<polygon class="st0" points="93.3,93.3 93.3,68.9 94.3,68.3 94.3,93.8 72.2,106.6 72.2,105.5 "/>
<polygon class="st0" points="73.3,102.4 73.3,81.8 91.1,71.5 91.1,72.6 74.3,82.3 74.3,101.8 "/>
<polygon class="st0" points="74.3,102.9 73.3,102.4 74.3,101 "/>
<path class="st1" d="M44.8,98.2v25.5l22.1,12.8v-25.5L44.8,98.2z M64.8,132.8L47,122.5v-20.6l17.8,10.3L64.8,132.8z"/>
<polygon class="st0" points="45.9,123.2 45.9,98.8 44.8,98.2 44.8,123.7 66.9,136.4 66.9,135.4 "/>
<polygon class="st0" points="65.8,132.3 65.8,111.7 48,101.4 48,102.4 64.8,112.2 64.8,131.7 "/>
<polygon class="st0" points="48,101.4 47,101.8 49,103 "/>
<polygon class="st0" points="64.8,132.8 65.8,132.3 64.8,130.9 "/>
<path class="st1" d="M72.2,110.9v25.5l22.1-12.8V98.2L72.2,110.9z M74.3,112.2l17.8-10.3v20.6l-17.8,10.3V112.2z"/>
<polygon class="st0" points="93.3,123.2 93.3,98.8 94.3,98.2 94.3,123.7 72.2,136.4 72.2,135.4 "/>
<polygon class="st0" points="73.3,132.3 73.3,111.7 91.1,101.4 91.1,102.4 74.3,112.2 74.3,131.7 "/>
<polygon class="st0" points="74.3,132.8 73.3,132.3 74.3,130.9 "/>
<path class="st1" d="M44.8,128v25.5l22.1,12.8v-25.5L44.8,128z M64.8,162.6L47,152.3v-20.6L64.8,142L64.8,162.6z"/>
<polygon class="st0" points="45.9,153.1 45.9,128.6 44.8,128 44.8,153.6 66.9,166.3 66.9,165.2 "/>
<polygon class="st0" points="65.8,162.2 65.8,141.5 48,131.2 48,132.3 64.8,142 64.8,161.6 "/>
<polygon class="st0" points="48,131.2 47,131.7 49,132.9 "/>
<polygon class="st0" points="64.8,162.6 65.8,162.2 64.8,160.7 "/>
<path class="st1" d="M72.2,140.8v25.5l22.1-12.8V128L72.2,140.8z M74.3,142l17.8-10.3v20.6l-17.8,10.3V142z"/>
<polygon class="st0" points="93.3,153.1 93.3,128.6 94.3,128 94.3,153.6 72.2,166.3 72.2,165.2 "/>
<polygon class="st0" points="73.3,162.2 73.3,141.5 91.1,131.2 91.1,132.3 74.3,142 74.3,161.6 "/>
<polygon class="st0" points="74.3,162.6 73.3,162.2 74.3,160.7 "/>
<polygon class="st0" points="91.1,71.5 92.2,72 90.2,73.1 "/>
<polygon class="st3" points="218.7,79.5 191.3,63.7 218.7,48 246.1,63.7 "/>
<linearGradient id="SVGID_9_" gradientUnits="userSpaceOnUse" x1="194.8037" y1="193.3665" x2="245.9237" y2="173.8665" gradientTransform="matrix(1 0 0 -1 0 248)">
	<stop  offset="0" style="stop-color:#42E8E0"/>
	<stop  offset="0.1" style="stop-color:#3CCACE"/>
	<stop  offset="0.34" style="stop-color:#2F87A5"/>
	<stop  offset="0.56" style="stop-color:#255385"/>
	<stop  offset="0.75" style="stop-color:#1E2D6E"/>
	<stop  offset="0.91" style="stop-color:#1A1660"/>
	<stop  offset="1" style="stop-color:#180D5B"/>
</linearGradient>
<polygon class="st14" points="218.7,79.5 191.3,63.7 218.7,48 246.1,63.7 "/>
<path class="st5" d="M218.7,190.7c0,0-0.1,0-0.1,0l-27.4-15.8c-0.1-0.1-0.2-0.2-0.1-0.3c0-0.1,0.1-0.2,0.1-0.3l27.4-15.8
	c0.1,0,0.2,0,0.3,0l27.4,15.8c0.1,0.1,0.1,0.2,0.1,0.3c0,0.1-0.1,0.2-0.1,0.3l-27.4,15.8C218.8,190.7,218.7,190.7,218.7,190.7z
	 M191.9,174.6l26.8,15.4l26.8-15.4l-26.8-15.4L191.9,174.6z"/>
<polygon class="st6" points="218.7,184.8 201.1,174.6 218.7,164.4 236.3,174.6 "/>
<linearGradient id="SVGID_10_" gradientUnits="userSpaceOnUse" x1="195.6197" y1="188.7485" x2="239.6197" y2="180.1785" gradientTransform="matrix(1 0 0 -1 0 248)">
	<stop  offset="0" style="stop-color:#42E8E0"/>
	<stop  offset="0.1" style="stop-color:#3CCACE"/>
	<stop  offset="0.34" style="stop-color:#2F87A5"/>
	<stop  offset="0.56" style="stop-color:#255385"/>
	<stop  offset="0.75" style="stop-color:#1E2D6E"/>
	<stop  offset="0.91" style="stop-color:#1A1660"/>
	<stop  offset="1" style="stop-color:#180D5B"/>
</linearGradient>
<polygon class="st15" points="192.4,63.7 219.2,48.3 218.7,48 191.3,63.7 218.7,79.5 219.2,79.2 "/>
<polygon class="st1" points="218.7,75.4 198.4,63.7 218.7,52 239,63.7 "/>
<polygon class="st0" points="218.7,54.7 236.6,65.1 239,63.7 218.7,52 198.4,63.7 200.7,65.1 "/>
<polygon class="st3" points="218.7,171.2 191.3,155.4 191.3,63.7 218.7,79.5 "/>
<linearGradient id="SVGID_11_" gradientUnits="userSpaceOnUse" x1="238.2317" y1="99.7518" x2="308.4817" y2="50.8518" gradientTransform="matrix(0.87 -0.5 0 -1.15 -1.08 342.27)">
	<stop  offset="0" style="stop-color:#2B237C"/>
	<stop  offset="1" style="stop-color:#180D5B"/>
</linearGradient>
<polygon class="st16" points="246.1,155.4 218.7,171.2 218.7,79.5 246.1,63.7 "/>
<linearGradient id="SVGID_12_" gradientUnits="userSpaceOnUse" x1="169.9704" y1="148.4715" x2="235.4404" y2="129.6314" gradientTransform="matrix(1 0 0 -1 0 248)">
	<stop  offset="0" style="stop-color:#42E8E0"/>
	<stop  offset="0.1" style="stop-color:#3CCACE"/>
	<stop  offset="0.34" style="stop-color:#2F87A5"/>
	<stop  offset="0.56" style="stop-color:#255385"/>
	<stop  offset="0.75" style="stop-color:#1E2D6E"/>
	<stop  offset="0.91" style="stop-color:#1A1660"/>
	<stop  offset="1" style="stop-color:#180D5B"/>
</linearGradient>
<polygon class="st17" points="218.7,79.5 191.3,63.7 191.3,155.4 218.7,171.2 246.1,155.4 246.1,63.7 "/>
<path class="st1" d="M194,68.3v25.5l22.1,12.8V81.1L194,68.3z M214,102.9l-17.9-10.3V72L214,82.3V102.9z"/>
<polygon class="st0" points="195,93.3 195,68.9 194,68.3 194,93.8 216.1,106.6 216.1,105.5 "/>
<polygon class="st0" points="215,102.4 215,81.8 197.1,71.5 197.1,72.6 213.9,82.3 213.9,101.8 "/>
<polygon class="st0" points="197.1,71.5 196.1,72 198.1,73.1 "/>
<polygon class="st0" points="213.9,102.9 215,102.4 213.9,101 "/>
<path class="st1" d="M221.3,81.1v25.5l22.1-12.8V68.3L221.3,81.1z M223.4,82.3L241.3,72v20.6l-17.9,10.3L223.4,82.3z"/>
<polygon class="st0" points="242.4,93.3 242.4,68.9 243.4,68.3 243.4,93.8 221.3,106.6 221.3,105.5 "/>
<polygon class="st0" points="222.4,102.4 222.4,81.8 240.3,71.5 240.3,72.6 223.4,82.3 223.4,101.8 "/>
<polygon class="st0" points="223.4,102.9 222.4,102.4 223.4,101 "/>
<path class="st1" d="M194,98.2v25.5l22.1,12.8v-25.5L194,98.2z M214,132.8l-17.9-10.3v-20.6l17.9,10.3V132.8z"/>
<polygon class="st0" points="195,123.2 195,98.8 194,98.2 194,123.7 216.1,136.4 216.1,135.4 "/>
<polygon class="st0" points="215,132.3 215,111.7 197.1,101.4 197.1,102.4 213.9,112.2 213.9,131.7 "/>
<polygon class="st0" points="197.1,101.4 196.1,101.8 198.1,103 "/>
<polygon class="st0" points="213.9,132.8 215,132.3 213.9,130.9 "/>
<path class="st1" d="M221.3,110.9v25.5l22.1-12.8V98.2L221.3,110.9z M223.4,112.2l17.9-10.3v20.6l-17.9,10.3V112.2z"/>
<polygon class="st0" points="242.4,123.2 242.4,98.8 243.4,98.2 243.4,123.7 221.3,136.4 221.3,135.4 "/>
<polygon class="st0" points="222.4,132.3 222.4,111.7 240.3,101.4 240.3,102.4 223.4,112.2 223.4,131.7 "/>
<polygon class="st0" points="223.4,132.8 222.4,132.3 223.4,130.9 "/>
<path class="st1" d="M194,128v25.5l22.1,12.8v-25.5L194,128z M214,162.6l-17.9-10.3v-20.6l17.8,10.3L214,162.6z"/>
<polygon class="st0" points="195,153.1 195,128.6 194,128 194,153.6 216.1,166.3 216.1,165.2 "/>
<polygon class="st0" points="215,162.2 215,141.5 197.1,131.2 197.1,132.3 213.9,142 213.9,161.6 "/>
<polygon class="st0" points="197.1,131.2 196.1,131.7 198.1,132.9 "/>
<polygon class="st0" points="213.9,162.6 215,162.2 213.9,160.7 "/>
<path class="st1" d="M221.3,140.8v25.5l22.1-12.8V128L221.3,140.8z M223.4,142l17.9-10.3v20.6l-17.9,10.3V142z"/>
<polygon class="st0" points="242.4,153.1 242.4,128.6 243.4,128 243.4,153.6 221.3,166.3 221.3,165.2 "/>
<polygon class="st0" points="222.4,162.2 222.4,141.5 240.3,131.2 240.3,132.3 223.4,142 223.4,161.6 "/>
<polygon class="st0" points="223.4,162.6 222.4,162.2 223.4,160.7 "/>
<polygon class="st0" points="240.3,71.5 241.3,72 239.3,73.1 "/>
<polygon class="st3" points="144.1,163 116.8,147.2 144.1,131.4 171.5,147.2 "/>
<linearGradient id="SVGID_13_" gradientUnits="userSpaceOnUse" x1="120.2425" y1="109.9132" x2="171.3625" y2="90.4132" gradientTransform="matrix(1 0 0 -1 0 248)">
	<stop  offset="0" style="stop-color:#42E8E0"/>
	<stop  offset="0.1" style="stop-color:#3CCACE"/>
	<stop  offset="0.34" style="stop-color:#2F87A5"/>
	<stop  offset="0.56" style="stop-color:#255385"/>
	<stop  offset="0.75" style="stop-color:#1E2D6E"/>
	<stop  offset="0.91" style="stop-color:#1A1660"/>
	<stop  offset="1" style="stop-color:#180D5B"/>
</linearGradient>
<polygon class="st18" points="144.1,163 116.8,147.2 144.1,131.4 171.5,147.2 "/>
<path class="st5" d="M144.1,214.6c0,0-0.1,0-0.1,0l-27.3-15.8c-0.1-0.1-0.2-0.2-0.2-0.3c0-0.1,0.1-0.2,0.2-0.3l27.4-15.8
	c0.1,0,0.2,0,0.3,0l27.4,15.8c0.1,0.1,0.2,0.2,0.1,0.3c0,0.1-0.1,0.2-0.1,0.3l-27.4,15.8C144.2,214.6,144.2,214.6,144.1,214.6z
	 M117.4,198.5l26.8,15.4l26.8-15.4L144.1,183L117.4,198.5z"/>
<polygon class="st6" points="144.1,208.6 126.5,198.5 144.1,188.3 161.8,198.5 "/>
<linearGradient id="SVGID_14_" gradientUnits="userSpaceOnUse" x1="121.0497" y1="105.2985" x2="165.0497" y2="96.7285" gradientTransform="matrix(1 0 0 -1 0 248)">
	<stop  offset="0" style="stop-color:#42E8E0"/>
	<stop  offset="0.1" style="stop-color:#3CCACE"/>
	<stop  offset="0.34" style="stop-color:#2F87A5"/>
	<stop  offset="0.56" style="stop-color:#255385"/>
	<stop  offset="0.75" style="stop-color:#1E2D6E"/>
	<stop  offset="0.91" style="stop-color:#1A1660"/>
	<stop  offset="1" style="stop-color:#180D5B"/>
</linearGradient>
<polygon class="st19" points="117.9,147.2 144.7,131.7 144.1,131.4 116.8,147.2 144.1,163 144.7,162.7 "/>
<polygon class="st1" points="144.1,158.9 123.8,147.2 144.1,135.5 164.4,147.2 "/>
<polygon class="st0" points="144.1,138.2 162.1,148.5 164.4,147.2 144.1,135.5 123.8,147.2 126.2,148.5 "/>
<polygon class="st3" points="144.1,194.6 116.8,178.8 116.8,147.2 144.1,163 "/>
<linearGradient id="SVGID_15_" gradientUnits="userSpaceOnUse" x1="165.0415" y1="81.8647" x2="205.9915" y2="53.3647" gradientTransform="matrix(0.87 -0.5 0 -1.15 -1.08 342.27)">
	<stop  offset="0" style="stop-color:#2B237C"/>
	<stop  offset="1" style="stop-color:#180D5B"/>
</linearGradient>
<polygon class="st20" points="171.5,178.8 144.1,194.6 144.1,163 171.5,147.2 "/>
<linearGradient id="SVGID_16_" gradientUnits="userSpaceOnUse" x1="105.5687" y1="92.1454" x2="157.0687" y2="77.3254" gradientTransform="matrix(1 0 0 -1 0 248)">
	<stop  offset="0" style="stop-color:#42E8E0"/>
	<stop  offset="0.1" style="stop-color:#3CCACE"/>
	<stop  offset="0.34" style="stop-color:#2F87A5"/>
	<stop  offset="0.56" style="stop-color:#255385"/>
	<stop  offset="0.75" style="stop-color:#1E2D6E"/>
	<stop  offset="0.91" style="stop-color:#1A1660"/>
	<stop  offset="1" style="stop-color:#180D5B"/>
</linearGradient>
<polygon class="st21" points="144.1,163 116.8,147.2 116.8,178.8 144.1,194.6 171.5,178.8 171.5,147.2 "/>
<path class="st1" d="M119.4,151.7v25.5l22.1,12.7v-25.5L119.4,151.7z M139.4,186.3L121.5,176v-20.6l17.8,10.3L139.4,186.3z"/>
<polygon class="st0" points="120.4,176.8 120.4,152.3 119.4,151.7 119.4,177.3 141.5,190 141.5,189 "/>
<polygon class="st0" points="140.4,185.9 140.4,165.3 122.6,154.9 122.6,156 139.4,165.7 139.4,185.3 "/>
<polygon class="st0" points="122.6,154.9 121.5,155.4 123.5,156.6 "/>
<polygon class="st0" points="139.4,186.3 140.4,185.9 139.4,184.4 "/>
<path class="st1" d="M146.8,164.5V190l22.1-12.8v-25.5L146.8,164.5z M148.9,165.7l17.9-10.3V176l-17.9,10.3V165.7z"/>
<polygon class="st0" points="167.8,176.8 167.8,152.3 168.9,151.7 168.9,177.3 146.8,190 146.8,189 "/>
<polygon class="st0" points="147.8,185.9 147.8,165.3 165.7,154.9 165.7,156 148.9,165.7 148.9,185.3 "/>
<polygon class="st0" points="148.9,186.3 147.8,185.9 148.9,184.4 "/>
<polygon class="st0" points="165.7,154.9 166.7,155.4 164.7,156.6 "/>
<polygon class="st3" points="144.1,141.5 116.8,125.7 144.1,109.9 171.5,125.7 "/>
<linearGradient id="SVGID_17_" gradientUnits="userSpaceOnUse" x1="120.2458" y1="131.422" x2="171.3658" y2="111.9219" gradientTransform="matrix(1 0 0 -1 0 248)">
	<stop  offset="0" style="stop-color:#42E8E0"/>
	<stop  offset="0.1" style="stop-color:#3CCACE"/>
	<stop  offset="0.34" style="stop-color:#2F87A5"/>
	<stop  offset="0.56" style="stop-color:#255385"/>
	<stop  offset="0.75" style="stop-color:#1E2D6E"/>
	<stop  offset="0.91" style="stop-color:#1A1660"/>
	<stop  offset="1" style="stop-color:#180D5B"/>
</linearGradient>
<polygon class="st22" points="144.1,141.5 116.8,125.7 144.1,109.9 171.5,125.7 "/>
<linearGradient id="SVGID_18_" gradientUnits="userSpaceOnUse" x1="121.0506" y1="126.803" x2="165.0506" y2="118.243" gradientTransform="matrix(1 0 0 -1 0 248)">
	<stop  offset="0" style="stop-color:#42E8E0"/>
	<stop  offset="0.1" style="stop-color:#3CCACE"/>
	<stop  offset="0.34" style="stop-color:#2F87A5"/>
	<stop  offset="0.56" style="stop-color:#255385"/>
	<stop  offset="0.75" style="stop-color:#1E2D6E"/>
	<stop  offset="0.91" style="stop-color:#1A1660"/>
	<stop  offset="1" style="stop-color:#180D5B"/>
</linearGradient>
<polygon class="st23" points="117.9,125.7 144.7,110.2 144.1,109.9 116.8,125.7 144.1,141.5 144.7,141.2 "/>
<polygon class="st1" points="144.1,137.4 123.8,125.7 144.1,114 164.4,125.7 "/>
<polygon class="st0" points="144.1,116.7 162.1,127 164.4,125.7 144.1,114 123.8,125.7 126.2,127 "/>
<polygon class="st3" points="144.1,150.9 116.8,135.1 116.8,125.7 144.1,141.5 "/>
<linearGradient id="SVGID_19_" gradientUnits="userSpaceOnUse" x1="169.8547" y1="106.8511" x2="199.9947" y2="85.8711" gradientTransform="matrix(0.87 -0.5 0 -1.15 -1.08 342.27)">
	<stop  offset="0" style="stop-color:#2B237C"/>
	<stop  offset="1" style="stop-color:#180D5B"/>
</linearGradient>
<polygon class="st24" points="171.5,135.1 144.1,150.9 144.1,141.5 171.5,125.7 "/>
<linearGradient id="SVGID_20_" gradientUnits="userSpaceOnUse" x1="109.3208" y1="123.6528" x2="155.6708" y2="110.3128" gradientTransform="matrix(1 0 0 -1 0 248)">
	<stop  offset="0" style="stop-color:#42E8E0"/>
	<stop  offset="0.1" style="stop-color:#3CCACE"/>
	<stop  offset="0.34" style="stop-color:#2F87A5"/>
	<stop  offset="0.56" style="stop-color:#255385"/>
	<stop  offset="0.75" style="stop-color:#1E2D6E"/>
	<stop  offset="0.91" style="stop-color:#1A1660"/>
	<stop  offset="1" style="stop-color:#180D5B"/>
</linearGradient>
<polygon class="st25" points="144.1,141.5 116.8,125.7 116.8,135.1 144.1,150.9 171.5,135.1 171.5,125.7 "/>
<path class="st1" d="M155,140.2c-0.1,1.1-0.6,2-1.5,2.6c-0.8,0.5-1.5,0.1-1.5-0.9c0.1-1.1,0.6-2,1.5-2.6
	C154.3,138.9,155,139.2,155,140.2z"/>
<path class="st1" d="M159.8,137.4c-0.1,1.1-0.6,2-1.5,2.6c-0.8,0.5-1.5,0.1-1.5-0.9c0.1-1.1,0.6-2,1.5-2.6
	C159.1,136.1,159.8,136.5,159.8,137.4z"/>
<path class="st1" d="M164.5,134.7c-0.1,1.1-0.6,2-1.5,2.6c-0.8,0.5-1.5,0.1-1.5-0.9c0.1-1.1,0.6-2,1.5-2.6
	C163.9,133.3,164.5,133.7,164.5,134.7z"/>
<path class="st0" d="M154.3,139.1c0,0.1,0.1,0.3,0.1,0.5c-0.1,1.1-0.6,2-1.5,2.6c-0.2,0.2-0.5,0.2-0.8,0.2c0.2,0.6,0.8,0.8,1.4,0.4
	c0.9-0.6,1.4-1.5,1.5-2.6C155,139.6,154.7,139.2,154.3,139.1z"/>
<path class="st0" d="M159.1,136.4c0,0.1,0.1,0.3,0.1,0.4c-0.1,1.1-0.6,2-1.5,2.6c-0.2,0.2-0.5,0.2-0.8,0.2c0.2,0.6,0.8,0.8,1.4,0.4
	c0.9-0.6,1.4-1.5,1.5-2.6C159.8,136.8,159.5,136.5,159.1,136.4z"/>
<path class="st0" d="M163.9,133.6c0,0.1,0.1,0.3,0.1,0.4c-0.1,1.1-0.6,2-1.5,2.6c-0.2,0.2-0.5,0.2-0.8,0.2c0.2,0.6,0.8,0.8,1.4,0.4
	c0.9-0.6,1.4-1.5,1.5-2.6C164.5,134.1,164.3,133.7,163.9,133.6z"/>
<path class="st1" d="M133.4,140.2c0.1,1.1,0.6,2,1.5,2.6c0.8,0.5,1.5,0.1,1.5-0.9c-0.1-1.1-0.6-2-1.5-2.6
	C134.1,138.9,133.4,139.2,133.4,140.2z"/>
<path class="st1" d="M128.6,137.4c0.1,1.1,0.6,2,1.5,2.6c0.8,0.5,1.5,0.1,1.5-0.9c-0.1-1.1-0.6-2-1.5-2.6
	C129.3,136.1,128.6,136.5,128.6,137.4z"/>
<path class="st1" d="M123.8,134.7c0.1,1.1,0.6,2,1.5,2.6c0.8,0.5,1.5,0.1,1.5-0.9c-0.1-1.1-0.6-2-1.5-2.6
	C124.5,133.3,123.8,133.7,123.8,134.7z"/>
<path class="st0" d="M134.1,139.1c0,0.1-0.1,0.3-0.1,0.5c0.1,1.1,0.6,2,1.5,2.6c0.2,0.2,0.5,0.2,0.8,0.2c-0.2,0.6-0.8,0.8-1.4,0.4
	c-0.9-0.6-1.4-1.5-1.5-2.6C133.4,139.6,133.7,139.2,134.1,139.1z"/>
<path class="st0" d="M129.3,136.4c0,0.1-0.1,0.3-0.1,0.4c0.1,1.1,0.6,2,1.5,2.6c0.2,0.2,0.5,0.2,0.8,0.2c-0.2,0.6-0.8,0.8-1.4,0.4
	c-0.9-0.6-1.4-1.5-1.5-2.6C128.6,136.8,128.9,136.5,129.3,136.4z"/>
<path class="st0" d="M124.5,133.6c0,0.1-0.1,0.3-0.1,0.4c0.1,1.1,0.6,2,1.5,2.6c0.2,0.2,0.5,0.2,0.8,0.2c-0.2,0.6-0.8,0.8-1.4,0.4
	c-0.9-0.6-1.4-1.5-1.5-2.6C123.8,134.1,124.1,133.7,124.5,133.6z"/>
</svg>
