<?xml version="1.0" standalone="no"?>
<!DOCTYPE svg PUBLIC "-//W3C//DTD SVG 20010904//EN"
 "http://www.w3.org/TR/2001/REC-SVG-20010904/DTD/svg10.dtd">
<svg version="1.0" xmlns="http://www.w3.org/2000/svg"
 width="700.000000pt" height="700.000000pt" viewBox="0 0 700.000000 700.000000"
 preserveAspectRatio="xMidYMid meet">
<metadata>
Created by potrace 1.14, written by Peter Selinger 2001-2017
</metadata>
<g transform="translate(0.000000,700.000000) scale(0.100000,-0.100000)"
fill="#000000" stroke="none">
<path d="M1775 6989 c-131 -18 -140 -20 -205 -34 -14 -4 -36 -8 -49 -11 -73
-15 -365 -120 -390 -140 -2 -2 247 -254 553 -559 l556 -556 1438 -2 c790 -2
1448 -6 1462 -10 31 -10 37 -12 75 -22 144 -38 313 -179 390 -326 31 -60 43
-91 73 -193 3 -12 7 -668 8 -1459 l3 -1438 556 -556 557 -556 20 44 c29 64 97
244 102 271 2 13 9 43 16 68 14 51 19 75 25 110 2 14 6 43 10 65 3 22 9 51 13
65 10 40 12 3386 1 3465 -8 62 -12 90 -25 170 -14 88 -66 260 -118 387 -191
472 -595 877 -1071 1073 -186 77 -353 119 -570 145 -92 11 -3352 10 -3430 -1z"/>
<path d="M181 5838 c-7 -18 -20 -48 -28 -66 -45 -103 -92 -261 -126 -432 -21
-104 -21 -120 -23 -1805 -2 -1616 -1 -1706 16 -1820 11 -66 21 -129 24 -140
103 -468 376 -890 758 -1177 126 -95 399 -248 441 -248 7 0 17 -4 23 -8 27
-24 265 -92 419 -119 93 -17 215 -18 1785 -18 927 0 1719 3 1760 8 78 7 182
27 282 53 71 18 240 74 253 84 6 4 27 13 47 19 20 7 41 17 46 24 7 9 -143 165
-542 565 l-553 554 -1411 0 c-1495 0 -1478 0 -1601 47 -200 76 -363 258 -417
466 -17 66 -18 149 -20 1503 l-2 1434 -553 554 c-305 304 -556 554 -559 554
-3 0 -11 -15 -19 -32z"/>
</g>
</svg>
