<svg width="770" height="263" viewBox="0 0 770 263" fill="none" xmlns="http://www.w3.org/2000/svg">
<rect width="770" height="262.754" fill="white"/>
<path d="M399.148 162L382.588 108L380.428 100.71H390.508L407.428 156.51L402.658 155.79L417.238 100.71H427.768L411.028 162H399.148ZM359.908 162L343.168 100.71H353.698L368.278 155.79L363.508 156.51L380.428 100.71H390.508L388.348 108L371.788 162H359.908ZM446.545 162H436.105V100.71H446.545V162ZM460.275 162V100.71H470.715V162H460.275ZM494.745 162L466.935 132.12V130.77L495.195 100.71H508.245L477.015 133.83L477.735 128.97L508.605 162H494.745ZM523.801 162H513.361V100.71H523.801V162Z" fill="#464655"/>
<path d="M330.304 113.209V152.52C330.304 156.568 329.381 160.403 327.717 163.822L313.19 149.294V113.209C313.19 108.309 309.213 104.332 304.313 104.332H268.227L253.7 89.8044C257.119 88.1507 260.954 87.2174 265.001 87.2174H304.313C318.648 87.2174 330.304 98.8739 330.304 113.209Z" fill="#0066CC"/>
<path d="M315.614 175.935C312.196 177.588 308.361 178.522 304.313 178.522H265.001C250.667 178.522 239 166.855 239 152.52V113.209C239 109.161 239.933 105.326 241.597 101.907L256.125 116.445V152.52C256.125 157.43 260.101 161.397 265.001 161.397H301.087L315.614 175.935Z" fill="#FF6611"/>
</svg>
